STARTFONT 2.1
COMMENT
COMMENT Converted from OpenType font "Font90Icons-rX1y.ttf" by "otf2bdf 3.0".
COMMENT
FONT -FreeType-Font 90 Icons-Medium-R-Normal--61-440-100-100-P-224-ISO10646-1
SIZE 44 100 100
FONTBOUNDINGBOX 65 63 0 -12
STARTPROPERTIES 19
FOUNDRY "FreeType"
FAMILY_NAME "Font 90 Icons"
WEIGHT_NAME "Medium"
SLANT "R"
SETWIDTH_NAME "Normal"
ADD_STYLE_NAME ""
PIXEL_SIZE 61
POINT_SIZE 440
RESOLUTION_X 100
RESOLUTION_Y 100
SPACING "P"
AVERAGE_WIDTH 224
CHARSET_REGISTRY "ISO10646"
CHARSET_ENCODING "1"
FONT_ASCENT 51
FONT_DESCENT 12
COPYRIGHT "Typeface © (el-harrak.blogspot.com). <darrati10@gmail.com>. All Rights Reserved"
_OTF_FONTFILE "Font90Icons-rX1y.ttf"
_OTF_PSNAME "Font 90 Icons"
ENDPROPERTIES
CHARS 242
STARTCHAR 0000
ENCODING 0
SWIDTH 0 0
DWIDTH 0 0
BBX 0 0 0 0
BITMAP
ENDCHAR
STARTCHAR 001D
ENCODING 29
SWIDTH 0 0
DWIDTH 0 0
BBX 0 0 0 0
BITMAP
ENDCHAR
STARTCHAR 0020
ENCODING 32
SWIDTH 245 0
DWIDTH 15 0
BBX 0 0 0 0
BITMAP
ENDCHAR
STARTCHAR 0021
ENCODING 33
SWIDTH 981 0
DWIDTH 60 0
BBX 59 59 0 -10
BITMAP
0000007FC0000000
000007FFFE000000
00003FFF7F800000
0000FFFFE3F00000
0003FFFFF8780000
0007FFFFFE1E0000
001FFFFFFF070000
003FFFFFFF838000
007FFFFFFFC1C000
00FFFFFFFFC06000
01FFFFFFFFE03000
01FFFFFFFFE01800
03FFFFF0FFE01C00
07FFFFE07FE00C00
0FFFFFC07FE00600
0FFFFFC03FF00700
1FFFFFC03FF00300
1FFFFFC07FE00180
3FFFFFE07FE00180
3FFFFFF1FFE00180
3FFFFFFFFFE000C0
7FFFFFFFFFC000C0
7FFFFFFFFFC000C0
7FFFFFFFFF800060
7FFFFFFFFF000060
7FFFFFFFFE000060
7FFFFFFFFC000060
FFFFFFFFF8000060
FFFFFFFFE0000060
FFFFFFFC00000060
FFFFFF8000000060
FFFFFE0000000060
7FFFF80000000060
7FFFF00000000060
7FFFE00000000060
7FFFC00000000060
7FFFC000000000C0
7FFF8000000000C0
3FFF8000000000C0
3FFF800600000180
3FFF001F80000180
1FFF003F80000380
1FFF003FC0000300
0FFF003FC0000700
0FFF003F80000600
07FF001F80000C00
03FF000F00001C00
03FF800000003800
01FF800000003000
00FF800000006000
007FC0000001C000
003FE00000038000
001FF00000070000
0007F800001E0000
0003FC0000780000
0000FF0001F00000
00003FC01FC00000
00000FFFFE000000
0000007FE0000000
ENDCHAR
STARTCHAR 0022
ENCODING 34
SWIDTH 981 0
DWIDTH 60 0
BBX 59 47 0 -4
BITMAP
000003FFFC000000
000007FFFE000000
00000FFFFE000000
00000F000E000000
00000E0007000000
00000E0007000000
00000E0007000000
00000E0007000000
0FFFFFFFFFFFFF00
3FFFFFFFFFFFFFC0
7FFFFFFFFFFFFFC0
7FFFFFFFFFFFFFE0
7FFFFFFFFFFFFFE0
FFFFFFFFFFFFFFE0
FFFFFFFFFFFFFFE0
FFFFFFFFFFFFFFE0
FFFFFFFFFFFFFFE0
FFFFFFFFFFFFFFE0
FFFFFFFFFFFFFFE0
FFFFFFFFFFFFFFE0
FFFFFFFFFFFFFFE0
FFFFFFFFFFFFFFE0
FFFFFFFFFFFFFFE0
FFFFFFFFFFFFFFE0
FFFFFFFFFFFFFFE0
FFFFFFFFFFFFFFE0
FFFFFFFFFFFFFFE0
FFFFFFFFFFFFFFE0
FFFFFFFFFFFFFFE0
FFFFFFFFFFFFFFE0
FFFFFFFFFFFFFFE0
FFFFFFFFFFFFFFE0
FFFFFFFFFFFFFFE0
FFFFFFFFFFFFFFE0
FFFFFFFFFFFFFFE0
FFFFFFFFFFFFFFE0
FFFFFFFFFFFFFFE0
FFFFFFFFFFFFFFE0
FFFFFFFFFFFFFFE0
FFFFFFFFFFFFFFE0
FFFFFFFFFFFFFFE0
FFFFFFFFFFFFFFE0
7FFFFFFFFFFFFFE0
7FFFFFFFFFFFFFE0
7FFFFFFFFFFFFFC0
3FFFFFFFFFFFFFC0
1FFFFFFFFFFFFF00
ENDCHAR
STARTCHAR 0023
ENCODING 35
SWIDTH 981 0
DWIDTH 60 0
BBX 56 62 2 -12
BITMAP
0000FFF0000000
0003FFFE000000
7C0FFFFFC00000
FE3FFFFFF00000
FE7FFFFFFE0020
7E7FFFFFFFE1E0
7E7FFFFFFFFFE0
7E7FFFFFFFFFE0
7E7FFFFFFFFFF0
7F7FFFFFFFFFF0
7F3FFFFFFFFFF0
3F3FFFFFFFFFF0
3F3FFFFFFFFFF0
3F3FFFFFFFFFF0
3F3FFFFFFFFFF8
3F9FFFFFFFFFF8
1F9FFFFFFFFFF8
1F9FFFFFFFFFF8
1F9FFFFFFFFFF8
1F9FFFFFFFFFF8
1FDFFFFFFFFFF8
1FCFFFFFFFFFFC
0FCFFFFFFFFFFC
0FCFFFFFFFFFFC
0FCFFFFFFFFFFC
0FCFFFFFFFFFFC
0FE7FFFFFFFFFC
0FE7FFFFFFFFFE
07E7FF007FFFFE
07E7F8000FFFFE
07E7E00001FFFE
07F38000007FFE
07F30000001FFE
03F200000003FF
03F0000000007E
03F00000000000
03F00000000000
03F80000000000
03F80000000000
01F80000000000
01F80000000000
01F80000000000
01F80000000000
01FC0000000000
01FC0000000000
00FC0000000000
00FC0000000000
00FC0000000000
00FE0000000000
00FE0000000000
007E0000000000
007E0000000000
007E0000000000
007E0000000000
007F0000000000
007F0000000000
003F0000000000
003F0000000000
003F0000000000
003F8000000000
003F8000000000
000C0000000000
ENDCHAR
STARTCHAR 0024
ENCODING 36
SWIDTH 981 0
DWIDTH 60 0
BBX 59 59 0 -10
BITMAP
0070000000000000
01FE000000000000
03FF000000000000
07FF800000000000
0FFFC00000000000
1FFFC00000000000
3FFFE00000000000
7FFFF00000000000
7FFFF80000000000
7FFFFC0000000000
FFFFFF0000000000
FFFFFF8000000000
7FFFFFC000000000
7FFFFFE000000000
7FFFFFF800000000
3FFFFFF400000000
1FFFFFEE00000000
07FFFFDF00000000
03FFFFBF80000000
01FFFF7FE0000000
00FFFEFFF0000000
007FFDFFF8000000
003FFBFFF0000000
001FF7FFE0000000
001FEFFFC0000000
000FDFFF80000000
0007BFFF00000000
00037FFE00000000
0002FFFE00000000
0001FFFB00000000
0000FFFF80000000
00007FE780000000
00003FC1C0000000
00003F80E0000000
00001F0070000000
00000E0038000000
000004001C000000
000000000E000000
0000000007000000
0000000003800000
0000000001C00000
0000000000E00000
0000000000700000
0000000000380000
00000000001C0000
0000000000040000
0000000000020000
0000000000010000
0000000000008000
0000000000004000
0000000000002000
0000000000001000
0000000000000800
0000000000000400
0000000000000200
0000000000000100
0000000000000080
0000000000000040
0000000000000020
ENDCHAR
STARTCHAR 0025
ENCODING 37
SWIDTH 981 0
DWIDTH 60 0
BBX 56 63 2 -12
BITMAP
00000010000000
000000FE000000
000001FF000000
000001FF000000
000001FF800000
000001FF800000
000001FF800000
00000FFFF00000
00007FFFFC0000
0001FFFFFF0000
0003FFFFFFC000
000FFFFFFFE000
001FFFFFFFF800
003FFFFFFFFC30
3F7FFEFE7FFFFC
7FFFF0FE1FFFFE
FFFFC0FE07FFFE
FFFF807E01FFFE
FFFF007C00FFFE
FFFE007C007FFE
FFFF007C00FFFE
7FFF803C01FFFC
3FFF803803FFF8
1FFFC03807FFF0
1FFFE0380FFFF0
1FFFF8381FFFF8
1FFFFC7C7FF7F8
1FC3FFFFFF07F8
1FC03FFFF807F8
3FC007FFE003F8
3FC003FFC003F8
3FC003FF8003F8
3FC003FFC003F8
3FC007FFC003F8
1FC01FFFF007F8
1FC0FFFFFF07F8
1FEFFE7C7FF7F8
1FFFF83C3FFFF8
1FFFF03C1FFFF0
0FFFE03C07FFF0
1FFFC03C03FFF8
7FFF803C03FFFC
7FFF007C01FFFE
FFFE007C007FFF
FFFE007E00FFFF
FFFF807E01FFFF
FFFFC0FE03FFFE
7FFFF0FE0FFFFE
3FFFFCFF3FFFFC
0C3FFFFFFFFC70
001FFFFFFFF800
000FFFFFFFF000
0007FFFFFFC000
0001FFFFFF8000
00007FFFFE0000
00001FFFF80000
000003FF800000
000001FF800000
000001FF800000
000001FF000000
000000FF000000
000000FE000000
0000003C000000
ENDCHAR
STARTCHAR 0026
ENCODING 38
SWIDTH 981 0
DWIDTH 60 0
BBX 59 59 0 -10
BITMAP
0000003FC0000000
000007FFFC000000
00003FFFFF800000
0000FFFFFFE00000
0003FE000FF80000
0007F00001FE0000
000FC000007F0000
003F0000001F8000
007E007FE007C000
00F803FFFC03E000
01F01FFFFF01F000
01E03FFFFFC0F800
03C0FFFFFFE07C00
0781FFFFFFF03C00
0783FFFFFFF81E00
0F07FFFFFFFC1F00
1E0FFFFFFFFE0F00
1E0FFFFFFFFF0780
1C1FDFFFFFFF0780
3C1F8FFFFFFF8380
3C3FC7FFFEFF83C0
383FE3FFFC7FC3C0
787FF1FFF8FFC1C0
787FF8FFF1FFC1C0
707FFC7FE3FFE1E0
70FFFE3FC7FFE1E0
70FFFF1F8FFFE1E0
70FFFF8F1FFFE0E0
F0FFFFC53FFFE0E0
F0FFFFE07FFFE0E0
F0FFFFF0FFFFE0E0
F0FFFFF0FFFFE0E0
70FFFFF0FFFFE1E0
70FFFFFFFFFFE1E0
707FFFFFFFFFE1E0
787FFFFFFFFFE1C0
787FFFFFFFFFC1C0
383FFFFFFFFFC3C0
383FFFFFFFFF83C0
3C1FFFFFFFFF8380
1C1FFFFFFFFF0780
1E0FFFFFFFFF0780
1E0FFFFFFFFE0F00
0F07FFFFFFFC0F00
0783FFFFFFF81E00
0781FFFFFFF03C00
03C0FFFFFFE07C00
01E03FFFFFC0F800
01F01FFFFF01F000
00F807FFFC03E000
007E00FFE007C000
003F0000001F8000
000FC000003F0000
0007F00001FE0000
0003FE000FF80000
0000FFFFFFE00000
00003FFFFF800000
000007FFFE000000
0000007FC0000000
ENDCHAR
STARTCHAR 0027
ENCODING 39
SWIDTH 981 0
DWIDTH 60 0
BBX 58 59 1 -11
BITMAP
00003FE000000000
0003FFFC00000000
000FFFFF80000000
003FFFFFC0000000
007FFFFFF0000000
00FFFFFFF8000000
01FFFFFFFC000000
03FFFFFFFE000000
07FFFFFFFF000000
0FFFC01FFF800000
1FFF0007FFC00000
1FFC0001FFC00000
3FF80700FFE00000
3FF00F807FE00000
7FE00F803FF00000
7FE01F803FF00000
FFC01F801FF00000
FF801F801FF80000
FF801F800FF80000
FF801F800FF80000
FF87FFFF0FF80000
FF0FFFFF8FF80000
FF0FFFFF8FF80000
FF0FFFFF8FF80000
FF0FFFFF8FF80000
FF87FFFE0FF80000
FF801F800FF80000
FF801F800FF80000
FFC01F801FF80000
7FC01F801FF00000
7FE01F803FF00000
7FE00F803FF00000
3FF00F807FE00000
3FF80200FFE00000
1FFC0003FFE00000
1FFF0007FFF00000
0FFFE03FFFF80000
07FFFFFFFFFC0000
03FFFFFFFFFE0000
01FFFFFFFFFF0000
00FFFFFFFFFF8000
007FFFFFFFFFC000
001FFFFFFFFFE000
000FFFFFFFFFF000
0001FFFC7FFFF800
00003FC03FFFFC00
000000001FFFFE00
000000000FFFFF00
0000000007FFFF80
0000000003FFFF80
0000000001FFFFC0
0000000000FFFFC0
00000000007FFFC0
00000000003FFFC0
00000000001FFFC0
00000000000FFF80
000000000007FF80
000000000003FF00
000000000001FC00
ENDCHAR
STARTCHAR 0028
ENCODING 40
SWIDTH 981 0
DWIDTH 60 0
BBX 59 59 0 -10
BITMAP
00007FFC00000000
0003FFFF00000000
000FFFFFC0000000
001FFFFFF0000000
007FFFFFF8000000
00FFFFFFFE000000
01FFFFFFFF000000
03FFFFFFFF800000
07FFFFFFFF800000
07FFC007FFC00000
0FFF0001FFE00000
1FFE0000FFE00000
1FFC00007FF00000
3FF800003FF00000
3FF000001FF80000
3FE000000FF80000
7FE000000FFC0000
7FC0000007FC0000
7FC0000007FC0000
7FC0000007FC0000
7FC7FFFF87FC0000
FF87FFFFC7FC0000
FF8FFFFFC3FC0000
FF87FFFFC7FC0000
7F87FFFF87FC0000
7FC0000007FC0000
7FC0000007FC0000
7FC0000007FC0000
7FE000000FFC0000
3FE000000FF80000
3FF000001FF80000
3FF000003FF80000
1FF800003FF00000
1FFC0000FFF00000
0FFF0001FFF00000
0FFFC007FFF80000
07FFF83FFFFC0000
03FFFFFFFFFE0000
01FFFFFFFFFF0000
00FFFFFFFFFF8000
007FFFFFFFFFC000
003FFFFFFFFFE000
000FFFFFFFFFF000
0003FFFFFFFFF800
0000FFFC3FFFFC00
000003C01FFFFE00
000000000FFFFF00
0000000007FFFF80
0000000003FFFFC0
0000000001FFFFE0
0000000000FFFFE0
00000000007FFFE0
00000000003FFFE0
00000000001FFFE0
00000000000FFFE0
000000000007FFC0
000000000003FFC0
000000000001FF80
0000000000007E00
ENDCHAR
STARTCHAR 0029
ENCODING 41
SWIDTH 981 0
DWIDTH 60 0
BBX 58 44 1 -3
BITMAP
7FFFFFFFFFFFFF80
FFFFFFFFFFFFFFC0
FFFFFFFFFFFFFFC0
FC00000000000FC0
FE00000000001FC0
FF00000000003FC0
FF80000000007FC0
EFC000000000FDC0
E7E000000001F9C0
E3F000000003F1C0
E1F800000007E1C0
E0FC0000000FC1C0
E07E0000001F81C0
E03F0000003F01C0
E01F8000007E01C0
E00FC00000FC01C0
E007E00001F801C0
E003F00003F001C0
E001F80007E001C0
E000FC000FC001C0
E0007E001F8001C0
E0003F003F0001C0
E0003F807F0001C0
E0007FC0FF8001C0
E000FFE3FFC001C0
E001F3FFF7E001C0
E003E1FFE3F001C0
E007C0FFC1F801C0
E00F807F00FC01C0
E01F0000007E01C0
E03E0000003F01C0
E07C0000001F81C0
E0F80000000FC1C0
E1F000000007E1C0
E3E000000003F1C0
E7C000000001F9C0
EF8000000000FDC0
FF00000000007FC0
FE00000000003FC0
FC00000000001FC0
FFFFFFFFFFFFFFC0
FFFFFFFFFFFFFFC0
FFFFFFFFFFFFFFC0
3FFFFFFFFFFFFF00
ENDCHAR
STARTCHAR 002A
ENCODING 42
SWIDTH 981 0
DWIDTH 60 0
BBX 52 62 4 -12
BITMAP
000003F8000000
000003F8000000
000003F8000000
000003F8000000
000003F8000000
000003F8000000
000003F8000000
000003F8000000
000003F8000000
000003F8000000
000003F8000000
000003F8000000
000003F8000000
000003F8000000
000003F8000000
003C03F8070000
003F03F83F8000
007FC3F8FF8000
007FF3FBFF8000
003FFFFFFF8000
001FFFFFFF0000
000FFFFFFE0000
0007FFFFFC0000
0003FFFFF80000
1FF9FFFFF7FF00
3FFCFFFFEFFF80
1FFE7FFFDFFF80
0FFF3FFFBFFF00
E7FF9FFF7FFE60
F3FFCFFEFFFCF0
F9FFE7FDFFF9F0
FCFFF3FBFFF3F0
FE7FF9F7FFE7F0
FF3FFCCFFFCFF0
FF9FFFBFFF9FF0
FFCFFFFFFF3FF0
FFE7FFFFFE7FF0
FFF3FFFFFCFFF0
FFF9FFFFF9FFF0
FFFCFFFFF3FFF0
FFFE7FFFE7FFF0
FFFF3FFFCFFFF0
FFFF9FFF9FFFF0
FFFF8FFF3FFFF0
FFFF87FE1FFFF0
FFFF73FCEFFFF0
FFFEF9F9F7FFF0
FFFDFCE3FBFFF0
FFFBFE07FDFFF0
FFF7FFFFFEFFF0
FFEFFFFFFF7FF0
FFDFFFFFFFBFF0
FFBFFFFFFF9FF0
FF7FFFFFFFCFF0
FEFFFFFFFFE7F0
FDFFFFFFFFF3F0
FBFFFFFFFFF9F0
F7FFFFFFFFFCF0
EFFFFFFFFFFE60
1FFFFFFFFFFF00
3FFFFFFFFFFF80
1FFFFFFFFFFF80
ENDCHAR
STARTCHAR 002B
ENCODING 43
SWIDTH 981 0
DWIDTH 60 0
BBX 58 59 1 -10
BITMAP
FFFFFFFFFFFFFFC0
FFFFFFFFFFFFFFC0
FFFFFFFFFFFFFFC0
FFFFFFFFFFFFFFC0
FFFFFFFFFFFFFFC0
FFFFFFFFFFFFFFC0
FFFFFFFFFFFFFFC0
FFFFFFFFFFFFFFC0
FC001FFFFC000FC0
FC001FFFFE001FC0
FC003FFFFF001FC0
FC007FFFFF801FC0
FC00FFFFFFC01FC0
FC007FFFFF801FC0
FC003FFFFF001FC0
FC001FFFFE001FC0
FE000FFFFC001FC0
FE2007FFF8011FC0
FE300FFFFC031FC0
FE781FFFFE079FC0
FEFC3FFFFF0FDFC0
FFFE7FFFFF9FFFC0
FFFFFFFFFFFFFFC0
FFFFFFFFFFFFFFC0
FFFFFFFFFFFFFFC0
FFFFFFFFFFFFFFC0
FFFFFFFFFFFFFFC0
FFFFFFFFFFFFFFC0
FFFFFFFFFFFFFFC0
FFFFFFFFFFFFFFC0
FFFFFFFFFFFFFFC0
FFFFFFFFFFFFFFC0
FFFFFFFFFFFFFFC0
FFFFFFFFFFFFFFC0
FFFFFFFFFFFFFFC0
FFFFFFFFFFFFFFC0
FFFFFFFFFFFFFFC0
FFFE7FFFFF9FFFC0
FEFC3FFFFF0FDFC0
FE781FFFFE079FC0
FE300FFFFC031FC0
FE2007FFF8011FC0
FE000FFFF8001FC0
FC001FFFFC001FC0
FC003FFFFE001FC0
FC007FFFFF001FC0
FC00FFFFFFC01FC0
FC007FFFFF801FC0
FC003FFFFF001FC0
FC001FFFFE001FC0
FC000FFFFC001FC0
FFFFFFFFFFFFFFC0
FFFFFFFFFFFFFFC0
FFFFFFFFFFFFFFC0
FFFFFFFFFFFFFFC0
FFFFFFFFFFFFFFC0
FFFFFFFFFFFFFFC0
FFFFFFFFFFFFFFC0
FFFFFFFFFFFFFFC0
ENDCHAR
STARTCHAR 002C
ENCODING 44
SWIDTH 981 0
DWIDTH 60 0
BBX 59 59 0 -10
BITMAP
0000000000008000
00000000003FC000
000000000FFFE000
000000007FFFF000
00000000FFFFF800
00000001FFFFFC00
00000003FFFFFE00
00000007FFFFFF00
0000000FFFFFFF80
0000001FFFFCFFC0
0000003FFFF87FE0
0000007FFFF03FE0
000000FFFFF01FE0
000001FFFFF83FE0
000003FFFFFC7FC0
000007FFFFFEFFC0
00000FFFFFFFFFC0
00001FFFFFFFFFC0
00003FFFFFFFFFC0
00007FFFFFFFFFC0
0000FFFFFFFFFF80
0001FFFFFFFFFF80
0003FFFFFFFFFF80
0007FFFFFFFFFF80
000FFFFFFFFFFF80
001FDFFFFFFFFF00
003F8FFFFFFFFE00
007F87FFFFFFFC00
00FFC3FFFFFFF800
01FFE1FFFFFFF000
03F9F0FFFFFFE000
07F0F87FFFFFC000
0FF87C3FFFFF8000
1FFC3E1FFFFF0000
3FFE1F0FFFFE0000
7FFF0F87FFFC0000
FFFF87C3FFF80000
3FFFC3E1FFF00000
1FFFE1F0FFE00000
0FFFF0F87FC00000
07FFF87C3F800000
03FFFC3E3F000000
01FFFE1F7E000000
00FFFF0FFC000000
007FFF87F8000000
003FFFC3F0000000
001FFFE7E0000000
000FFFFFC0000000
0007FFFF80000000
0003FFFF00000000
0001FFFE00000000
0000FFFC00000000
00007FF800000000
00003FF000000000
00001FE000000000
00000FC000000000
0000078000000000
0000030000000000
0000010000000000
ENDCHAR
STARTCHAR 002D
ENCODING 45
SWIDTH 981 0
DWIDTH 60 0
BBX 59 59 0 -10
BITMAP
0000003F80000000
000007FFFC000000
00001FFFFF800000
0000FFFFFFE00000
0001FF801FF80000
0007F80003FE0000
000FE000007F0000
003F8000001F8000
007E0000000FC000
00FC00000003E000
01F800000001F000
01FC00000100F800
03FE000003807C00
07CF000007803C00
078780000F803E00
0F03C0001F801F00
1F01E0001F800F00
1E00F0003F800F80
1E0078007F800780
3C003C00FF800780
3C001E01FF8003C0
38000003FF8003C0
78001FFFFF8003C0
78001FFFFF8001C0
78001FFFFF8001E0
70001FFFFF8001E0
70001FFFFF8001E0
70001FFFFF8001E0
F0001FFFFF8001E0
F0001FFFFF8001E0
F0001FFFFF8001E0
F0001FFFFF8001E0
70001FFFFF8001E0
70001FFFFF8001E0
78001FFFFF8001E0
78001FFFFF8001C0
78001FFFFF8003C0
38000003FF8003C0
3C000001FF8003C0
3C000000FF800780
1E0000007F800780
1E0000007F900F80
1F0000003F980F00
0F0000001F9C1F00
0F8000000F9E3E00
07C00000078F3C00
03E000000387FC00
01F000000103F800
01F800000001F000
00FC00000003E000
007E0000000FC000
003F8000001F8000
001FC000007F0000
0007F80001FE0000
0003FF001FF80000
0000FFFFFFF00000
00003FFFFF800000
000007FFFE000000
0000007FE0000000
ENDCHAR
STARTCHAR 002E
ENCODING 46
SWIDTH 981 0
DWIDTH 60 0
BBX 50 63 5 -12
BITMAP
07FFFFFFFFFC00
0FFFFFFFFFFF00
1FFFFFFFFFFF00
1C000000000700
1C000000000700
1C000000000700
1C000000000700
1C000000000700
1C000000000700
1C000000000700
1C000000000700
1C000000000700
1C000000000700
1C000000000700
1C000000000700
1C000000000700
1C000000000700
1C000000000700
1C000000000700
1C000000000700
1C000000000700
1C000000000700
1C000000000700
1C000000000700
1C000000000700
1C000000000700
1C000000000700
1C000000000700
1C000000000700
1C000000000700
1FFFFFFFFFFF00
0FFFFFFFFFFF00
07FFFFFFFFFE00
00000000000000
00000000000000
0FFFFFFFFFFE00
1FFFFFFFFFFF00
1FFFFFFFFFFF00
1FFFFFFFFFFF00
1FFFFFFF003F00
1FFFFFFF003F00
1FFFFFFF003F00
1FFFFFFFFFFF00
1FFFFFFFFFFF00
1FFFFFFFFFFF00
1FFFFFFFFFFF00
1FFFFFFFFFFF00
07FFFFFFFFFE00
000000E0000000
000000E0000000
000000E0000000
000000E0000000
000000E0000000
000000E0000000
000000E0000000
0000FFFFE00000
0000FFFFE00000
0000FFFFE00000
FFFFFFFFFFFFC0
FFFFFFFFFFFFC0
FFFFFFFFFFFFC0
0000FFFFE00000
0000FFFFE00000
ENDCHAR
STARTCHAR 002F
ENCODING 47
SWIDTH 981 0
DWIDTH 60 0
BBX 59 61 0 -11
BITMAP
0000000E00000000
0180007FE0003800
03C001FFF0003800
03C003FFF8007800
01E007FFFC007800
01E00FFFFE00F000
00F00FFFFF00F000
00F01FFFFF01F000
00F81FFFFF01E000
70781FFFFF83E0E0
70781FFFFF83E1E0
787C1FFFFF83C1E0
787C1FFFFF83C3C0
783C1FFFFF87C3C0
3C3C1FFFFF87C3C0
3C3E1FFFFF8787C0
3C3E1FFFFF8787C0
3E3E1FFFFF8F8780
3E3E1FFFFF8F8780
3E1E1FFFFF8F8780
1E1E1FFFFF8F8F80
1E1F1FFFFF8F8F80
1E1F1FFFFF8F8F80
1E1F1FFFFF8F8F80
1E1F1FFFFF8F8F80
1E1F1FFFFF8F8F80
1E1F1FFFFF8F8F80
1E1F1FFFFF8F8F80
1E1F1FFFFF8F8F80
1E1F1FFFFF8F8F80
3E1E1FFFFF8F8780
3E1E1FFFFF8F8780
3E3E1FFFFF8F8780
3C3E1FFFFF878780
3C3E1FFFFF8787C0
3C3E1FFFFF87C3C0
7C3C1FFFFF87C3C0
783C1FFFFF87C3C0
787C1FFFFF03C1E0
78781FFFFF03C1E0
F0780FFFFF03E1E0
70F80FFFFE01E0E0
40F007FFFE01E040
00F003FFFC00F000
01F001FFF000F000
01E000FFE000F000
01E000FFE0007800
03C000FFE0007800
018000FFE0003800
000000FFE0000000
000000FFE0000000
000000FFE0000000
000000FFE0000000
000000FFE0000000
000000FFE0000000
000000FFE0000000
000000FFE0000000
000000FFE0000000
000000FFE0000000
0000007FC0000000
0000003F80000000
ENDCHAR
STARTCHAR 0030
ENCODING 48
SWIDTH 981 0
DWIDTH 60 0
BBX 59 59 0 -10
BITMAP
0000003F80000000
000007FFFC000000
00003FFFFF800000
0000FFFFFFE00000
0001FFFFFFF80000
0007FFFFFFFC0000
000FFFFFFFFF0000
001FFFFFFFFF8000
007FFFFFFFFFC000
00FFFFFFFFFFE000
00FFDFFFFFBFF000
01FF1FFFFF1FF800
03FE0FFFFF0FFC00
07FC0FFFFE07FC00
07F807FFFC03FE00
0FF003FFFC01FF00
1FE003FFF800FF00
1FE001FFF8007F80
1FC001FFF0007F80
3FC000FFF0003F80
3F8000FFE0003FC0
3F80007FC0001FC0
7F00003FC0001FC0
7F00007FE0001FC0
7F0000FFF0000FE0
7F0001FBF8000FE0
7E0003E078000FE0
7E0003C078000FE0
7E0003C038000FE0
FFFFFF803FFFFFE0
FFFFFF803FFFFFE0
7FFFFFC03FFFFFE0
7FFFFFC07FFFFFE0
7FFFFFE0FFFFFFE0
7FFFFFFFFFFFFFE0
7FFFFFFFFFFFFFE0
7FFFFFFFFFFFFFC0
7FFFFF843FFFFFC0
3FFFFF801FFFFFC0
3FFFFF001FFFFF80
3FFFFE000FFFFF80
1FFFFE000FFFFF80
1FFFFC0007FFFF00
0FFFFC0003FFFF00
0FFFF80003FFFE00
07FFF00001FFFE00
03FFF00001FFFC00
03FFE00000FFF800
01FFE00000FFF000
00FFE00000FFE000
007FF80003FFC000
003FFF001FFF8000
001FFFFFFFFF0000
0007FFFFFFFE0000
0003FFFFFFFC0000
0000FFFFFFF00000
00003FFFFFC00000
00000FFFFE000000
000000FFF0000000
ENDCHAR
STARTCHAR 0031
ENCODING 49
SWIDTH 981 0
DWIDTH 60 0
BBX 57 63 1 -12
BITMAP
000000FF80000000
000001FFE0000000
000001FFE0000000
000001FFE0000000
000001FFE0000000
000001FFE0000000
000001FFE0000000
000001FFE0000000
000061FFE1800000
0001E1FFE1E00000
0007E1FFE1F00000
000FE1FFE1FC0000
003FE1FFE1FE0000
007FE1FFE1FF0000
00FFE1FFE1FF8000
01FFE1FFE1FFC000
03FFE1FFE1FFE000
03FFC1FFE0FFF000
07FF01FFE07FF000
0FFE01FFE03FF800
0FFC01FFE01FFC00
1FF801FFE00FFC00
1FF801FFE007FE00
3FF001FFE003FE00
3FE001FFE003FF00
3FE001FFE001FF00
7FC001FFE001FF00
7FC001FFE000FF00
7FC001FFE000FF80
7F8001FFE000FF80
FF8001FFE000FF80
FF8001FFE0007F80
FF8001FFE0007F80
FF8001FFE0007F80
FF8001FFE0007F80
FF8000FF80007F80
FF80000000007F80
FF8000000000FF80
FF8000000000FF80
7F8000000000FF80
7FC000000000FF80
7FC000000001FF00
7FC000000001FF00
3FE000000001FF00
3FE000000003FE00
3FF000000007FE00
1FF800000007FE00
1FFC0000000FFC00
0FFC0000001FFC00
0FFF0000003FF800
07FF8000007FF000
03FFC00001FFF000
01FFF00007FFE000
01FFFE001FFFC000
00FFFFFFFFFF8000
007FFFFFFFFF0000
001FFFFFFFFE0000
000FFFFFFFF80000
0007FFFFFFF00000
0001FFFFFFC00000
00007FFFFF000000
00000FFFFC000000
000000FFC0000000
ENDCHAR
STARTCHAR 0032
ENCODING 50
SWIDTH 981 0
DWIDTH 60 0
BBX 56 63 2 -12
BITMAP
00000010000000
000000FE000000
000001FF000000
000001FF000000
000001FF800000
000001FF800000
000001FF800000
000001FF800000
000001FF800000
000001FF000000
000001FF000000
000001FF000000
000001FF000000
000000FF000070
3F0000FE0001FC
7FC000FE0007FE
FFE000FE000FFE
FFF8007E001FFE
FFFC007C003FFE
FFFE007C007FFE
FFFF007C00FFFE
7FFF003801FFFC
3FFF803803FFF8
1FFFC03807FFF0
07FFE0380FFFC0
00FFF0381FFE00
003FFC7C7FF000
0003FFFFFF0000
00003FFFF80000
000007FFE00000
000003FFC00000
000003FF800000
000003FFC00000
000007FFC00000
00001FFFF00000
0000FFFFFF0000
000FFE7C7FF000
007FF83C3FFE00
03FFF03C1FFFC0
0FFFE03C0FFFF0
1FFFC03C07FFF8
7FFF803C03FFFC
7FFF007C01FFFE
FFFE007C00FFFF
FFFC007E007FFF
FFF8007E001FFF
FFE000FE000FFE
7FC000FE0007FE
3F8000FF0001FC
1C0000FF000070
000001FF000000
000001FF000000
000001FF000000
000001FF800000
000001FF800000
000001FF800000
000001FF800000
000001FF800000
000001FF800000
000001FF000000
000001FF000000
000000FE000000
0000003C000000
ENDCHAR
STARTCHAR 0033
ENCODING 51
SWIDTH 981 0
DWIDTH 60 0
BBX 58 55 1 -8
BITMAP
0000000800000000
0000000C00000000
0000001C00000000
0000001E00000000
0000003E00000000
0000003F00000000
0000007F00000000
0000007F80000000
000000FF80000000
000000FFC0000000
000001FFC0000000
000001FFE0000000
000003FFE0000000
000003FFF0000000
000007FFF0000000
000007FFF8000000
00000FFFF8000000
00000FFFFC000000
00007FFFFF800000
003FFFFFFFFF0000
1FFFFFFFFFFFFC00
FFFFFFFFFFFFFFC0
7FFFFFFFFFFFFF00
3FFFFFFFFFFFFE00
1FFFFFFFFFFFFC00
0FFFFFFFFFFFF800
07FFFFFFFFFFF000
03FFFFFFFFFFE000
01FFFFFFFFFFC000
00FFFFFFFFFF8000
007FFFFFFFFF0000
003FFFFFFFFE0000
001FFFFFFFFC0000
000FFFFFFFF80000
0007FFFFFFF00000
0003FFFFFFE00000
0003FFFFFFF00000
0003FFFFFFF00000
0003FFFFFFF00000
0007FFFFFFF00000
0007FFFFFFF00000
0007FFFFFFF00000
0007FFFFFFF80000
0007FFFFFFF80000
0007FFFFFFF80000
000FFFFFFFF80000
000FFFF3FFF80000
000FFFC0FFF80000
000FFF003FFC0000
000FFC000FFC0000
000FF00007FC0000
001FC00001FC0000
001F0000007C0000
001C0000001E0000
0010000000060000
ENDCHAR
STARTCHAR 0034
ENCODING 52
SWIDTH 981 0
DWIDTH 60 0
BBX 58 43 1 -2
BITMAP
1FFFFFFFFFFFFE00
3FFFFFFFFFFFFE00
3FFFFFFFFFFFFE00
1FFFFFFFFFFFFC00
CFFFFFFFFFFFF980
E7FFFFFFFFFFF3C0
F3FFFFFFFFFFE7C0
F9FFFFFFFFFFCFC0
FCFFFFFFFFFF9FC0
FE7FFFFFFFFF3FC0
FF3FFFFFFFFE7FC0
FF9FFFFFFFFCFFC0
FFCFFFFFFFF9FFC0
FFE7FFFFFFF3FFC0
FFF3FFFFFFE7FFC0
FFF9FFFFFFCFFFC0
FFFCFFFFFF9FFFC0
FFFE7FFFFF3FFFC0
FFFF3FFFFE7FFFC0
FFFF9FFFFCFFFFC0
FFFFCFFFF9FFFFC0
FFFFE7FFF3FFFFC0
FFFFE3FFE1FFFFC0
FFFFC1FFC0FFFFC0
FFFF9CFF8E7FFFC0
FFFF3E7F1F3FFFC0
FFFE7F1C3FBFFFC0
FFFCFF80FFDFFFC0
FFF9FFFFFFEFFFC0
FFF3FFFFFFF7FFC0
FFE7FFFFFFFBFFC0
FFCFFFFFFFFDFFC0
FF9FFFFFFFFEFFC0
FF3FFFFFFFFF7FC0
FE7FFFFFFFFFBFC0
FCFFFFFFFFFFDFC0
F9FFFFFFFFFFEFC0
F3FFFFFFFFFFF7C0
E7FFFFFFFFFFFBC0
CFFFFFFFFFFFFDC0
1FFFFFFFFFFFFE00
3FFFFFFFFFFFFE00
1FFFFFFFFFFFFE00
ENDCHAR
STARTCHAR 0035
ENCODING 53
SWIDTH 981 0
DWIDTH 60 0
BBX 59 46 0 -5
BITMAP
0000000400000000
0000001F01FE0000
0000003F83FE0000
000000F9E3FE0000
000001E0F3FE0000
000003C43FFE0000
00000F0E1FFE0000
00001E1F8FFE0000
0000787FC3FE0000
0000F0FFE1FE0000
0003C3FFF87E0000
000787FFFC3E0000
001F1FFFFF0F0000
003C3FFFFF878000
00F87FFFFFE1E000
01E1FFFFFFF0F000
07C3FFFFFFFC3C00
0F0FFFFFFFFE1E00
1E1FFFFFFFFF0780
787FFFFFFFFFC3C0
F07FFFFFFFFFC1E0
407FFFFFFFFFC040
007FFFFFFFFFC000
007FFFFFFFFFC000
007FFFFFFFFFC000
007FFFFFFFFFC000
007FFF801FFFC000
007FFF801FFFC000
007FFF801FFFC000
007FFF801FFFC000
007FFF801FFFC000
007FFF801FFFC000
007FFF801FFFC000
007FFF801FFFC000
007FFF801FFFC000
007FFF801FFFC000
007FFF801FFFC000
007FFF801FFFC000
007FFF801FFFC000
007FFF801FFFC000
007FFF801FFFC000
007FFF801FFFC000
007FFF801FFFC000
007FFF801FFFC000
003FFF801FFFC000
001FFF801FFF8000
ENDCHAR
STARTCHAR 0036
ENCODING 54
SWIDTH 981 0
DWIDTH 60 0
BBX 58 62 1 -12
BITMAP
007C0000007C0000
00FE000000FE0000
01FF000001FF0000
01FF000001FF8000
01FF800001FF8000
01FF800001FF8000
01FF000001FF0000
01FF000001FF0000
00FE000000FE0000
007C0000003C0000
0000000000000000
07FFC00003FFC000
3FFFF8000FFFE000
7FFFFC001FFFF000
FFFFFE003FFFF800
FFFFFE003FFFF800
FFFFFE007FFFFC00
FFFFFF007FFFFC00
FFFFFF007BFFBC00
F7FFDF007BFFBE00
F7FFDF00FBFF9E00
F7FFDF00FFFFDE00
F7FFDF00F7FFDF00
F7FFDF01F7FFDF00
F7FFDF01F7FFEF00
F7FFDF01EFFFEF00
F7FFDF01EFFFEF80
F7FFDF03EFFFE780
F7FFDF03DFFFF780
F7FFDF03DFFFF7C0
F7FFDF07DFFFF7C0
F7FFDF07DFFFFBC0
F7FFDF03BFFFFB80
F7FFDF003FFFF800
F7FFCE003FFFF800
47FFC4007FFFFC00
07EFC0007FFFFC00
07EFC0007FFFFC00
07EFC0007FFFFE00
07EFC000FFFFFE00
07EFC000FFFFFE00
07EFC000FFFFFF00
07EFC00003EF8000
07EFC00003EF8000
07EFC00003EF8000
07EFC00003EF8000
07EFC00003EF8000
07EFC00003EF8000
07EFC00003EF8000
07EFC00003EF8000
07EFC00003EF8000
07EFC00003EF8000
07EFC00003EF8000
07EFC00003EF8000
07EFC00003EF8000
07EFC00003EF8000
07EFC00003EF8000
07EFC00003EF8000
07EFC00003EF8000
07EFC00003EF8000
03C7800003E78000
0000000000830000
ENDCHAR
STARTCHAR 0037
ENCODING 55
SWIDTH 981 0
DWIDTH 60 0
BBX 58 45 1 -3
BITMAP
00003FC000000000
0003FFFC00000000
000FFFFF00000000
003FF9FFC0000000
007FC07FE0000000
01FF801FF0000000
03FF001FFC000000
07FF000FFE000000
0FFF000FFE000000
0FFE000FFF000000
1FFE000FFF800000
3FFF000FFF800000
3FFF000FFFC00000
7FFF801FFFC00000
7FFF801FFFE00000
7FFFE07FFFE00000
FE07FFFE07F00000
F803FFFC01F00000
F001FFF800F00000
F000FFF000F00000
E000FFF000700000
E000FFF000700000
E000FFF000700000
E000FFF000700000
F000FFF000F00000
F001FFF800F00000
F801FFF801F00000
FC07FFFE03F00000
FF1FF0FF8FF00000
7FFFC03FFFE00000
7FFF801FFFE00000
7FFF000FFFE00000
3FFF000FFFC00000
3FFF000FFFC00000
1FFE000FFF800000
0FFF000FFF000000
0FFF000FFF000000
07FF000FFF8003C0
03FF801FFF800FC0
01FFC03FFFC03FC0
00FFE07FF3FFFF80
003FFFFFC1FFFE00
000FFFFF01FFF800
0003FFFC007FC000
00007FE000000000
ENDCHAR
STARTCHAR 0038
ENCODING 56
SWIDTH 981 0
DWIDTH 60 0
BBX 46 63 7 -12
BITMAP
1FFFFFFFFFE0
7FFFFFFFFFF8
FFFFFFFFFFF8
FFFFFFFFFFFC
FFFFFFFFFFFC
FC00000000FC
F8000000007C
F0000000007C
F0000000007C
F0000000007C
F0000000007C
F0000000007C
F0000000007C
F0000000007C
F0000000007C
F0000000007C
F8000000007C
FFFFFFFFFFFC
FFFFFFFFFFFC
FFFFFFFFFFFC
FFFFFFFFFFFC
FFFFFFFFFFFC
F807E01F807C
F807E01F807C
F807E01F807C
F807E01F807C
F807E01F807C
F807E01F807C
F807E01F807C
F807E01F807C
FFFFFFFFFFFC
FFFFFFFFFFFC
FFFFFFFFFFFC
FFFFFFFFFFFC
FFFFFFFFFFFC
FC0FF03FC0FC
F807E01F807C
F807E01F807C
F807E01F807C
F807E01F807C
F807E01F807C
F807E01F807C
F807E01F807C
FC0FF03FC0FC
FFFFFFFFFFFC
FFFFFFFFFFFC
FFFFFFFFFFFC
FFFFFFFFFFFC
FFFFFFFFFFFC
F807E01F807C
F807E01F807C
F807E01F807C
F807E01F807C
F807E01F807C
F807E01F807C
F807E01F807C
F807E01F80FC
FFFFFFFFFFFC
FFFFFFFFFFFC
FFFFFFFFFFFC
FFFFFFFFFFFC
7FFFFFFFFFF8
3FFFFFFFFFF0
ENDCHAR
STARTCHAR 0039
ENCODING 57
SWIDTH 981 0
DWIDTH 60 0
BBX 59 57 0 -9
BITMAP
2000000000000000
7800000000000000
FC00000000000000
7E00000000000000
3F00000000000000
1F80000000000000
0FC0000000000000
07C0000000000000
03E07FFFFFFFFFE0
01F07FFFFFFFFFE0
01F07FFFFFFFFFC0
00F83FFFFFFFFFC0
00F83FFFFFFFFF80
00783FFFFFFFFF80
007C3FFFFFFFFF00
003C3FFFFFFFFF00
003E3FFFFFFFFE00
003E1FFFFFFFFE00
001E1FFFFFFFFC00
001E1FFFFFFFFC00
001F1FFFFFFFF800
001F1FFFFFFFF800
000F1FFFFFFFF000
000F0FFFFFFFF000
000F8FFFFFFFF000
000F8FFFFFFFE000
00078FFFFFFFE000
00078FFFFFFFC000
00078FFFFFFFC000
0007800000000000
0007C00000000000
0007C00000000000
0007C00000000000
0003C00000000000
0003C00000000000
0003C00000000000
0003C00000000000
0003FFFFFFFFFC00
0003FFFFFFFFFE00
0003FFFFFFFFFE00
0001FFFFFFFFFC00
0000000000000000
0000000000000000
0000000000000000
0000000000000000
0001F8000007E000
0003FE00000FF800
0007FE00001FFC00
0007FF00001FFC00
000FFF00003FFC00
000FFF00003FFC00
000FFF00003FFC00
000FFF00003FFC00
0007FF00001FFC00
0007FE00000FF800
0003FC000007F000
0000F0000003C000
ENDCHAR
STARTCHAR 003A
ENCODING 58
SWIDTH 981 0
DWIDTH 60 0
BBX 59 59 0 -10
BITMAP
0000000000600000
000000000FFF0000
000000003FFFC000
00000000FFFFF000
00000001FFFFF800
00000003FFFFFC00
00000007FFFFFE00
0000000FFFFFFF00
0000001FFFF03F00
0000001FFFE01F80
0000003FFFE01F80
0000003FFFE00FC0
0000003FFFC00FC0
0000007FFFE00FC0
0000007FFFE01FE0
0000007FFFF03FE0
0000007FFFF87FE0
0000007FFFFFFFE0
0000007FFFFFFFE0
0000007FFFFFFFE0
0000007FFFFFFFE0
0000007FFFFFFFC0
0000003FFFFFFFC0
0000003FFFFFFFC0
0000013FFFFFFF80
0000031FFFFFFF80
0000070FFFFFFF00
00000F8FFFFFFF00
00001FC7FFFFFE00
00003FC3FFFFFC00
00007FE1FFFFF800
0000FFF0FFFFE000
0001FFF83FFFC000
0003FFFE0FFE0000
0007FFFF00000000
000FFFFFC0000000
001FFFFFE0000000
003FFFF800000000
007FFFF800000000
00FFFFF800000000
01FFFFF800000000
03FFFFF800000000
07FFFF8000000000
0FFFFF8000000000
1FFFFF8000000000
3FFF800000000000
3FFF800000000000
7FFF800000000000
7FFF800000000000
7FFF800000000000
FFFF800000000000
FFFF800000000000
7FFF800000000000
7FF8000000000000
7FF8000000000000
3FF8000000000000
1FF8000000000000
0FF8000000000000
03F0000000000000
ENDCHAR
STARTCHAR 003B
ENCODING 59
SWIDTH 981 0
DWIDTH 60 0
BBX 59 59 0 -10
BITMAP
0000000F00000000
0000000F00000000
0000000F00000000
0000000F00000000
0000000F00000000
0000000F00000000
0000000F00000000
0000000F00000000
0000000F00000000
0000000F00000000
0000000F00000000
0000000F00000000
0000000F00000000
0000000F00000000
0000000F00000000
0000000F00000000
0000000F00000000
0000000F00000000
0000000F00000000
0000000F00000000
0000000F00000000
0000000F00000000
0000000F00000000
0000000F00000000
0000000F00000000
0000000F00000000
0000000F00000000
FFFFFFFFFFFFFFE0
FFFFFFFFFFFFFFE0
FFFFFFFFFFFFFFE0
FFFFFFFFFFFFFFE0
FFFFFFFFFFFFFFE0
0000000F00000000
0000000F00000000
0000000F00000000
0000000F00000000
0000000F00000000
0000000F00000000
0000000F00000000
0000000F00000000
0000000F00000000
0000000F00000000
0000000F00000000
0000000F00000000
0000000F00000000
0000000F00000000
0000000F00000000
0000000F00000000
0000000F00000000
0000000F00000000
0000000F00000000
0000000F00000000
0000000F00000000
0000000F00000000
0000000F00000000
0000000F00000000
0000000F00000000
0000000F00000000
0000000F00000000
ENDCHAR
STARTCHAR 003C
ENCODING 60
SWIDTH 981 0
DWIDTH 60 0
BBX 59 47 0 -4
BITMAP
0000000E00000000
0000000F00000000
0000001F80000000
0000001F80000000
0000003FC0000000
0000007FC0000000
0000007FE0000000
000000FFE0000000
000000FFF0000000
000001FBF8000000
000003F9F8000000
000003F0FC000000
000007E0FC000000
000007E07E000000
00000FC07F000000
00001FC03F000000
00001F801F800000
00003F001F800000
00003F000FC00000
00007E000FE00000
0000FE0007E00000
0000FC0003F00000
0001F80003F00000
0001F80001F80000
0003F00001FC0000
0007F00000FC0000
0007E000007E0000
000FC000007E0000
000FC000003F0000
001F8000003F8000
003F8000001F8000
003F0000000FC000
007E0000000FC000
007E00000007E000
00FC00000007E000
01FC00000003F000
01F800000001F800
03F000000001F800
03F000000000FC00
07E000000000FC00
0FE0000000007E00
0FC0000000003F00
1F80000000003F00
1F80000000001F80
3F00000000001F80
7F00000000000FC0
FE000000000007E0
ENDCHAR
STARTCHAR 003D
ENCODING 61
SWIDTH 981 0
DWIDTH 60 0
BBX 59 59 0 -10
BITMAP
0000003F80000000
000007FFFC000000
00001FFFFF800000
0000FE000FE00000
0003F00001F80000
0007C000007C0000
000F0000001F0000
003C000000078000
007800000003C000
00F000000000E000
01E0000000007000
01C0000000003800
0387FFFFE0003C00
0700FF8FFC001C00
07007E01FE000E00
0E007E007F000E00
1C007E007F000700
1C007E003F800300
18007E001F800380
38007E001FC00380
38007E001FC001C0
30007E001FC001C0
70007E001FC001C0
70007E001F8000C0
60007E003F8000E0
60007E003F0000E0
60007E007E0000E0
E0007E01FC0000E0
E0007E0FF80000E0
E0007FFFC00000E0
E0007FFF800000E0
E0007E1FC00000E0
60007E0FC00000E0
60007E07E00000E0
60007E07F00000E0
70007E03F00000C0
70007E01F80000C0
70007E01FC0001C0
30007E00FE0001C0
38007E007E000180
18007E003F000380
1C007E003F800380
1C007E001F800700
0E007E000FC00700
0E007F0007E00E00
0700FF8007F81C00
0387FFF003FC1C00
03C0000000003800
01E0000000007000
00F000000000E000
007800000003C000
003C000000078000
001F0000000F0000
0007C000003E0000
0003F00001F80000
0000FE000FE00000
00003FFFFF800000
000007FFFE000000
0000007FC0000000
ENDCHAR
STARTCHAR 003E
ENCODING 62
SWIDTH 981 0
DWIDTH 60 0
BBX 59 59 0 -10
BITMAP
0000001F80000000
000003FFFC000000
00001FFFFF800000
0000FF001FE00000
0001F80001F80000
0007C000007C0000
000F0000001F0000
003E000000078000
007800000003C000
00F000000001E000
01E0000000007000
01C0007FF8307800
038003FFFF703C00
07000FC00FF01C00
07001F0003F00E00
0E007E0001F80E00
1C00FC0000F80700
1C01F80000780300
1801F00000380380
3803F00000380180
3807E000001801C0
3007E000001801C0
700FC000000000C0
700FC000000000C0
601FC000000000E0
601FC000000000E0
601FC000000000E0
E01FC000000000E0
E01FC00000000060
E01FC00000000060
E01FC000000000E0
E01FC000000000E0
601FC000000000E0
601FC000000000E0
601FC000000000E0
700FC000000000C0
700FE000000000C0
700FE000000001C0
3007E000000001C0
3807F000000C0180
3803F80000180380
1C01F80000300380
1C00FC0000700700
0E007F0001E00700
0E003F8003800E00
07000FF87F001C00
038003FFFC001C00
03C000FFE0003800
01E0000000007000
00F000000000E000
007800000003C000
003C000000078000
001F0000000F0000
0007C000003E0000
0003F00001F80000
0000FE000FE00000
00003FFFFF800000
000007FFFE000000
0000007FC0000000
ENDCHAR
STARTCHAR 003F
ENCODING 63
SWIDTH 981 0
DWIDTH 60 0
BBX 58 59 1 -10
BITMAP
0000000C00000000
000007FFF8000000
00003FFFFF000000
0000FFFFFFC00000
0003FFFFFFF00000
000FFFFFFFF80000
001FFFFFFFFE0000
003FFF003FFF0000
007FF00007FF8000
00FFC00001FFC000
01FF0000007FE000
03FE0000003FF000
07FC0000000FF000
0FF800000007F800
0FF000000003FC00
1FE000000001FC00
1FC000000001FE00
3FC000000000FE00
3F80000000007F00
7F00000000007F00
7F00000000003F80
7E00000000003F80
FE00000000003F80
FE00000000001F80
FE00000000001FC0
FC00000000001FC0
FC00000000001FC0
FC00000000001FC0
FC00000000001FC0
FC00000000000FC0
FC00000000001FC0
FC00000000001FC0
FC00000000001FC0
FC00000000001FC0
FC00000000001FC0
FE00000000001F80
FE00000000001F80
FE00000000003F80
7F00000000003F80
7F00000000007F00
7F80000000007F00
3F8000000000FF00
3FC000000000FE00
1FE000000001FE00
1FE000000003FC00
0FF000000007F800
07F80000000FF800
03FE0000001FF000
03FF0000003FE000
01FF800000FFC000
00FFE00003FF8000
007FFC001FFF0000
003FFFFFFFFE0000
000FFFFFFFFC0000
0007FFFFFFF00000
0001FFFFFFE00000
00007FFFFF800000
00001FFFFC000000
000000FFC0000000
ENDCHAR
STARTCHAR 0040
ENCODING 64
SWIDTH 981 0
DWIDTH 60 0
BBX 59 59 0 -10
BITMAP
0000000400000000
0000000400000000
0000000600000000
0000000E00000000
0000000F00000000
0000001F00000000
0000001F80000000
0000003F80000000
0000003FC0000000
0000007FC0000000
0000007FE0000000
000000FFE0000000
000000FFF0000000
000001FFF0000000
000001FFF8000000
000003FFF8000000
000003FFFC000000
000007FFFC000000
000007FFFE000000
00000FFFFE000000
00000FFFFF000000
00001FFFFF000000
00001FFFFF800000
00003FFFFF800000
00003FFFFFC00000
00007FFFFFC00000
00007FFFFFE00000
0000FFFFFFE00000
0000FFFFFFF00000
0001FFFFFFF00000
0001FFFFFFF80000
0003FFFFFFF80000
0003FFFFFFFC0000
0007FFFFFFFC0000
0007FFFFFFFE0000
000FFFFFFFFE0000
000FFFFFFFFF0000
001FFFFFFFFF0000
001FFFFFFFFF8000
003FFFFFFFFF8000
003FFFFFFFFFC000
007FFFFFFFFFC000
007FFFFFFFFFE000
00FFFFFFFFFFE000
00FFFFFFFFFFF000
01FFFFFFFFFFF000
01FFFFFFFFFFF800
03FFFFFFFFFFF800
03FFFFFFFFFFFC00
07FFFFFFFFFFFC00
07FFFFFFFFFFFE00
0FFFFFFFFFFFFE00
0FFFFFFFFFFFFF00
1FFFFFFFFFFFFF00
1FFFFFFFFFFFFF80
3FFFFFFFFFFFFF80
3FFFFFFFFFFFFFC0
7FFFFFFFFFFFFFC0
FFFFFFFFFFFFFFE0
ENDCHAR
STARTCHAR 0041
ENCODING 65
SWIDTH 981 0
DWIDTH 60 0
BBX 58 57 1 -9
BITMAP
8000080000000000
8000040000000000
C000060000000000
F000078000000000
F80007C000000000
FC0007E000000000
FF0007F800000000
FF8007FC00000000
FFC007FE00000000
FFF007FF80000000
FFF807FFC0000000
FFFC07FFE0000000
FFFF07FFF8000000
FFFF87FFFC000000
FFFFC7FFFE000000
FFFFF1FFFF800000
FFFFF8FFFFC00000
FFFFFC7FFFE00000
FFFFFF1FFFF80000
FFFFFF8FFFFC0000
FFFFFFC7FFFE0000
FFFFFFF3FFFF8000
FFFFFFF8FFFFC000
FFFFFFFC7FFFE000
FFFFFFFF3FFFF800
FFFFFFFF8FFFFC00
FFFFFFFFC7FFFE00
FFFFFFFFF3FFFF80
FFFFFFFFF8FFFFC0
FFFFFFFFF1FFFF80
FFFFFFFFC7FFFE00
FFFFFFFF8FFFFC00
FFFFFFFF1FFFF800
FFFFFFFC7FFFE000
FFFFFFF8FFFFC000
FFFFFFF1FFFF8000
FFFFFFC7FFFE0000
FFFFFF8FFFFC0000
FFFFFF1FFFF80000
FFFFFC7FFFE00000
FFFFF8FFFFC00000
FFFFF1FFFF800000
FFFFC7FFFE000000
FFFF87FFFC000000
FFFF07FFF8000000
FFFC07FFE0000000
FFF807FFC0000000
FFF007FF80000000
FFC007FE00000000
FF8007FC00000000
FF0007F800000000
FC0007E000000000
F80007C000000000
F000078000000000
C000060000000000
8000040000000000
8000080000000000
ENDCHAR
STARTCHAR 0042
ENCODING 66
SWIDTH 981 0
DWIDTH 60 0
BBX 51 63 4 -12
BITMAP
8000000003FFE0
C000000003FFE0
F000000003FFE0
F800000003FFE0
FE00000003FFE0
FF80000003FFE0
FFC0000003FFE0
FFF0000003FFE0
FFFC000003FFE0
FFFE000003FFE0
FFFF800003FFE0
FFFFC00003FFE0
FFFFF00003FFE0
FFFFFC0003FFE0
FFFFFE0003FFE0
FFFFFF8003FFE0
FFFFFFE003FFE0
FFFFFFF003FFE0
FFFFFFFC03FFE0
FFFFFFFF03FFE0
FFFFFFFF83FFE0
FFFFFFFFE3FFE0
FFFFFFFFF3FFE0
FFFFFFFFFFFFE0
FFFFFFFFFFFFE0
FFFFFFFFFFFFE0
FFFFFFFFFFFFE0
FFFFFFFFFFFFE0
FFFFFFFFFFFFE0
FFFFFFFFFFFFE0
FFFFFFFFFFFFE0
FFFFFFFFFFFFE0
FFFFFFFFFFFFE0
FFFFFFFFFFFFE0
FFFFFFFFFFFFE0
FFFFFFFFFFFFE0
FFFFFFFFFFFFE0
FFFFFFFFFFFFE0
FFFFFFFFFFFFE0
FFFFFFFFFFFFE0
FFFFFFFFFBFFE0
FFFFFFFFE3FFE0
FFFFFFFFC3FFE0
FFFFFFFF03FFE0
FFFFFFFC03FFE0
FFFFFFF803FFE0
FFFFFFE003FFE0
FFFFFF8003FFE0
FFFFFF0003FFE0
FFFFFC0003FFE0
FFFFF00003FFE0
FFFFE00003FFE0
FFFF800003FFE0
FFFF000003FFE0
FFFC000003FFE0
FFF0000003FFE0
FFE0000003FFE0
FF80000003FFE0
FE00000003FFE0
FC00000003FFE0
F000000003FFE0
C000000003FFE0
8000000003FFE0
ENDCHAR
STARTCHAR 0043
ENCODING 67
SWIDTH 981 0
DWIDTH 60 0
BBX 45 62 7 -12
BITMAP
FFFFE03FFFF8
FFFFE03FFFF8
FFFFE03FFFF8
FFFFE03FFFF8
FFFFE03FFFF8
FFFFE03FFFF8
FFFFE03FFFF8
FFFFE03FFFF8
FFFFE03FFFF8
FFFFE03FFFF8
FFFFE03FFFF8
FFFFE03FFFF8
FFFFE03FFFF8
FFFFE03FFFF8
FFFFE03FFFF8
FFFFE03FFFF8
FFFFE03FFFF8
FFFFE03FFFF8
FFFFE03FFFF8
FFFFE03FFFF8
FFFFE03FFFF8
FFFFE03FFFF8
FFFFE03FFFF8
FFFFE03FFFF8
FFFFE03FFFF8
FFFFE03FFFF8
FFFFE03FFFF8
FFFFE03FFFF8
FFFFE03FFFF8
FFFFE03FFFF8
FFFFE03FFFF8
FFFFE03FFFF8
FFFFE03FFFF8
FFFFE03FFFF8
FFFFE03FFFF8
FFFFE03FFFF8
FFFFE03FFFF8
FFFFE03FFFF8
FFFFE03FFFF8
FFFFE03FFFF8
FFFFE03FFFF8
FFFFE03FFFF8
FFFFE03FFFF8
FFFFE03FFFF8
FFFFE03FFFF8
FFFFE03FFFF8
FFFFE03FFFF8
FFFFE03FFFF8
FFFFE03FFFF8
FFFFE03FFFF8
FFFFE03FFFF8
FFFFE03FFFF8
FFFFE03FFFF8
FFFFE03FFFF8
FFFFE03FFFF8
FFFFE03FFFF8
FFFFE03FFFF8
FFFFE03FFFF8
FFFFE03FFFF8
FFFFE03FFFF8
FFFFE03FFFF8
FFFFE03FFFF8
ENDCHAR
STARTCHAR 0044
ENCODING 68
SWIDTH 981 0
DWIDTH 60 0
BBX 51 62 4 -12
BITMAP
C0000000000000
E0000000000000
F8000000000000
FE000000000000
FF000000000000
FFC00000000000
FFF00000000000
FFF80000000000
FFFE0000000000
FFFF8000000000
FFFFC000000000
FFFFF000000000
FFFFF800000000
FFFFFE00000000
FFFFFF80000000
FFFFFFC0000000
FFFFFFF0000000
FFFFFFFC000000
FFFFFFFE000000
FFFFFFFF800000
FFFFFFFFE00000
FFFFFFFFF00000
FFFFFFFFFC0000
FFFFFFFFFE0000
FFFFFFFFFF8000
FFFFFFFFFFE000
FFFFFFFFFFF000
FFFFFFFFFFFC00
FFFFFFFFFFFF00
FFFFFFFFFFFF80
FFFFFFFFFFFFE0
FFFFFFFFFFFFC0
FFFFFFFFFFFF00
FFFFFFFFFFFE00
FFFFFFFFFFF800
FFFFFFFFFFE000
FFFFFFFFFFC000
FFFFFFFFFF0000
FFFFFFFFFC0000
FFFFFFFFF80000
FFFFFFFFE00000
FFFFFFFFC00000
FFFFFFFF000000
FFFFFFFC000000
FFFFFFF8000000
FFFFFFE0000000
FFFFFF80000000
FFFFFF00000000
FFFFFC00000000
FFFFF000000000
FFFFE000000000
FFFF8000000000
FFFF0000000000
FFFC0000000000
FFF00000000000
FFE00000000000
FF800000000000
FE000000000000
FC000000000000
F0000000000000
C0000000000000
80000000000000
ENDCHAR
STARTCHAR 0045
ENCODING 69
SWIDTH 981 0
DWIDTH 60 0
BBX 58 59 1 -10
BITMAP
0000001C00000000
000007FFF8000000
00003FFFFF000000
0000FFFFFFC00000
0003FFFFFFF00000
000FFFFFFFF80000
001FFFFFFFFE0000
003FFFFFFFFF0000
007FFFFFFFFF8000
00FFFFFFFFFFC000
01FFFFFFFFFFE000
03FFFFFFFFFFF000
07FFFFFFFFFFF000
0FFFFFFFFFFFF800
0FFFFFFFFFFFFC00
1FFFFFFFFFFFFC00
1FFFFFFFFFFFFE00
3FFFFF007FFFFE00
3FFFFC001FFFFF00
7FFFF80007FFFF00
7FFFF00003FFFF80
7FFFE00001FFFF80
FFFFC00000FFFF80
FFFF800000FFFF80
FFFF8000007FFFC0
FFFF8000007FFFC0
FFFF0000007FFFC0
FFFF0000003FFFC0
FFFF0000003FFFC0
FFFF0000003FFFC0
FFFF0000003FFFC0
FFFF0000003FFFC0
FFFF0000007FFFC0
FFFF0000007FFFC0
FFFF8000007FFFC0
FFFF800000FFFF80
FFFFC00000FFFF80
7FFFE00001FFFF80
7FFFE00003FFFF80
7FFFF00007FFFF00
3FFFFC000FFFFF00
3FFFFF003FFFFE00
3FFFFFF7FFFFFE00
1FFFFFFFFFFFFC00
0FFFFFFFFFFFFC00
0FFFFFFFFFFFF800
07FFFFFFFFFFF800
03FFFFFFFFFFF000
03FFFFFFFFFFE000
01FFFFFFFFFFC000
00FFFFFFFFFF8000
007FFFFFFFFF0000
001FFFFFFFFE0000
000FFFFFFFFC0000
0007FFFFFFF00000
0001FFFFFFC00000
00007FFFFF000000
00000FFFFC000000
000000FF80000000
ENDCHAR
STARTCHAR 0046
ENCODING 70
SWIDTH 981 0
DWIDTH 60 0
BBX 58 58 1 -10
BITMAP
FFFFFFFFFFFFFFC0
FFFFFFFFFFFFFFC0
FFFFFFFFFFFFFFC0
FFFFFFFFFFFFFFC0
FFFFFFFFFFFFFFC0
FFFFFFFFFFFFFFC0
FFFFFFFFFFFFFFC0
FFFFFFFFFFFFFFC0
FFFFFFFFFFFFFFC0
FFFFFFFFFFFFFFC0
FFFFFFFFFFFFFFC0
FFFFFFFFFFFFFFC0
FFFFFFFFFFFFFFC0
FFFFFFFFFFFFFFC0
FFFFFFFFFFFFFFC0
FFFFFFFFFFFFFFC0
FFFFFFFFFFFFFFC0
FFFFFFFFFFFFFFC0
FFFFFFFFFFFFFFC0
FFFFFFFFFFFFFFC0
FFFFFFFFFFFFFFC0
FFFFFFFFFFFFFFC0
FFFFFFFFFFFFFFC0
FFFFFFFFFFFFFFC0
FFFFFFFFFFFFFFC0
FFFFFFFFFFFFFFC0
FFFFFFFFFFFFFFC0
FFFFFFFFFFFFFFC0
FFFFFFFFFFFFFFC0
FFFFFFFFFFFFFFC0
FFFFFFFFFFFFFFC0
FFFFFFFFFFFFFFC0
FFFFFFFFFFFFFFC0
FFFFFFFFFFFFFFC0
FFFFFFFFFFFFFFC0
FFFFFFFFFFFFFFC0
FFFFFFFFFFFFFFC0
FFFFFFFFFFFFFFC0
FFFFFFFFFFFFFFC0
FFFFFFFFFFFFFFC0
FFFFFFFFFFFFFFC0
FFFFFFFFFFFFFFC0
FFFFFFFFFFFFFFC0
FFFFFFFFFFFFFFC0
FFFFFFFFFFFFFFC0
FFFFFFFFFFFFFFC0
FFFFFFFFFFFFFFC0
FFFFFFFFFFFFFFC0
FFFFFFFFFFFFFFC0
FFFFFFFFFFFFFFC0
FFFFFFFFFFFFFFC0
FFFFFFFFFFFFFFC0
FFFFFFFFFFFFFFC0
FFFFFFFFFFFFFFC0
FFFFFFFFFFFFFFC0
FFFFFFFFFFFFFFC0
FFFFFFFFFFFFFFC0
FFFFFFFFFFFFFFC0
ENDCHAR
STARTCHAR 0047
ENCODING 71
SWIDTH 981 0
DWIDTH 60 0
BBX 51 63 4 -12
BITMAP
FFF80000000020
FFF80000000020
FFF800000000E0
FFF800000003E0
FFF800000007E0
FFF80000001FE0
FFF80000007FE0
FFF8000000FFE0
FFF8000003FFE0
FFF8000007FFE0
FFF800001FFFE0
FFF800007FFFE0
FFF80000FFFFE0
FFF80003FFFFE0
FFF8000FFFFFE0
FFF8001FFFFFE0
FFF8007FFFFFE0
FFF801FFFFFFE0
FFF803FFFFFFE0
FFF80FFFFFFFE0
FFF83FFFFFFFE0
FFF87FFFFFFFE0
FFF9FFFFFFFFE0
FFFBFFFFFFFFE0
FFFFFFFFFFFFE0
FFFFFFFFFFFFE0
FFFFFFFFFFFFE0
FFFFFFFFFFFFE0
FFFFFFFFFFFFE0
FFFFFFFFFFFFE0
FFFFFFFFFFFFE0
FFFFFFFFFFFFE0
FFFFFFFFFFFFE0
FFFFFFFFFFFFE0
FFFFFFFFFFFFE0
FFFFFFFFFFFFE0
FFFFFFFFFFFFE0
FFFFFFFFFFFFE0
FFFFFFFFFFFFE0
FFFFFFFFFFFFE0
FFF9FFFFFFFFE0
FFF8FFFFFFFFE0
FFF83FFFFFFFE0
FFF80FFFFFFFE0
FFF807FFFFFFE0
FFF801FFFFFFE0
FFF800FFFFFFE0
FFF8003FFFFFE0
FFF8000FFFFFE0
FFF80007FFFFE0
FFF80001FFFFE0
FFF800007FFFE0
FFF800003FFFE0
FFF800000FFFE0
FFF8000003FFE0
FFF8000001FFE0
FFF80000007FE0
FFF80000001FE0
FFF80000000FE0
FFF800000003E0
FFF800000001E0
FFF80000000060
FFF80000000020
ENDCHAR
STARTCHAR 0048
ENCODING 72
SWIDTH 981 0
DWIDTH 60 0
BBX 58 57 1 -9
BITMAP
0000000008000040
00000000080000C0
00000000380001C0
00000000780003C0
00000000F8000FC0
00000003F8001FC0
00000007F8003FC0
0000000FF8007FC0
0000003FF801FFC0
0000007FF803FFC0
000000FFF807FFC0
000003FFF81FFFC0
000007FFF83FFFC0
00000FFFF87FFFC0
00003FFFF1FFFFC0
00007FFFE3FFFFC0
0000FFFFC7FFFFC0
0003FFFF1FFFFFC0
0007FFFE3FFFFFC0
000FFFFC7FFFFFC0
003FFFF1FFFFFFC0
007FFFE3FFFFFFC0
00FFFFC7FFFFFFC0
03FFFF1FFFFFFFC0
07FFFE3FFFFFFFC0
0FFFFC7FFFFFFFC0
3FFFF1FFFFFFFFC0
7FFFE3FFFFFFFFC0
FFFFC7FFFFFFFFC0
7FFFE3FFFFFFFFC0
3FFFF1FFFFFFFFC0
1FFFFCFFFFFFFFC0
07FFFE3FFFFFFFC0
03FFFF1FFFFFFFC0
01FFFF8FFFFFFFC0
007FFFE3FFFFFFC0
003FFFF1FFFFFFC0
001FFFF8FFFFFFC0
0007FFFE3FFFFFC0
0003FFFF1FFFFFC0
0001FFFF8FFFFFC0
00007FFFE3FFFFC0
00003FFFF1FFFFC0
00001FFFF8FFFFC0
000007FFF83FFFC0
000003FFF81FFFC0
000001FFF80FFFC0
0000007FF803FFC0
0000003FF801FFC0
0000001FF800FFC0
00000007F8003FC0
00000003F8001FC0
00000001F8000FC0
00000000780003C0
00000000380001C0
00000000180000C0
0000000008000040
ENDCHAR
STARTCHAR 0049
ENCODING 73
SWIDTH 981 0
DWIDTH 60 0
BBX 58 59 1 -10
BITMAP
F820000000000000
F830000000000000
F83C000000000000
F83E000000000000
F83F800000000000
F83FC00000000000
F83FC00000000000
F83FC00000000000
F83FC00000000000
F83FC18000000000
F83FC1E000000000
F83FC1F000000000
F83FC1FC00000000
F83FC1FF00000000
F83FC1FF80000000
F83FC1FFE0000000
F83FC1FFF8000000
F83FC1FFFC000000
F83FC1FFFF000000
F83FC1FFFF800000
F83FC1FFFFE00000
F83FC1FFFFF80000
F83FC1FFFFFC0000
F83FC1FFFFFF0000
F83FC1FFFFFFC000
F83FC1FFFFFFE000
F83FC1FFFFFFF800
F83FC1FFFFFFFE00
F83FC1FFFFFFFF00
F83FC1FFFFFFFFC0
F83FC1FFFFFFFF80
F83FC1FFFFFFFE00
F83FC1FFFFFFF800
F83FC1FFFFFFF000
F83FC1FFFFFFC000
F83FC1FFFFFF0000
F83FC1FFFFFE0000
F83FC1FFFFF80000
F83FC1FFFFE00000
F83FC1FFFFC00000
F83FC1FFFF000000
F83FC1FFFE000000
F83FC1FFF8000000
F83FC1FFE0000000
F83FC1FFC0000000
F83FC1FF00000000
F83FC1FC00000000
F83FC1F800000000
F83FC1E000000000
F83FC18000000000
F83FC10000000000
F83FC00000000000
F83FC00000000000
F83FC00000000000
F83F800000000000
F83F000000000000
F83C000000000000
F830000000000000
F820000000000000
ENDCHAR
STARTCHAR 004A
ENCODING 74
SWIDTH 981 0
DWIDTH 60 0
BBX 58 57 1 -9
BITMAP
0000000800000000
0000000C00000000
0000001E00000000
0000003E00000000
0000007F00000000
0000007F80000000
000000FFC0000000
000001FFE0000000
000003FFE0000000
000003FFF0000000
000007FFF8000000
00000FFFFC000000
00001FFFFC000000
00001FFFFE000000
00003FFFFF000000
00007FFFFF800000
0000FFFFFF800000
0000FFFFFFC00000
0001FFFFFFE00000
0003FFFFFFF00000
0007FFFFFFF00000
000FFFFFFFF80000
000FFFFFFFFC0000
001FFFFFFFFE0000
003FFFFFFFFE0000
007FFFFFFFFF0000
007FFFFFFFFF8000
00FFFFFFFFFFC000
01FFFFFFFFFFC000
03FFFFFFFFFFE000
03FFFFFFFFFFF000
07FFFFFFFFFFF800
0FFFFFFFFFFFF800
1FFFFFFFFFFFFC00
1FFFFFFFFFFFFE00
3FFFFFFFFFFFFF00
7FFFFFFFFFFFFF00
FFFFFFFFFFFFFF80
FFFFFFFFFFFFFFC0
0000000000000000
0000000000000000
0000000000000000
0000000000000000
FFFFFFFFFFFFFFC0
FFFFFFFFFFFFFFC0
FFFFFFFFFFFFFFC0
FFFFFFFFFFFFFFC0
FFFFFFFFFFFFFFC0
FFFFFFFFFFFFFFC0
FFFFFFFFFFFFFFC0
FFFFFFFFFFFFFFC0
FFFFFFFFFFFFFFC0
FFFFFFFFFFFFFFC0
FFFFFFFFFFFFFFC0
FFFFFFFFFFFFFFC0
FFFFFFFFFFFFFFC0
FFFFFFFFFFFFFFC0
ENDCHAR
STARTCHAR 004B
ENCODING 75
SWIDTH 981 0
DWIDTH 60 0
BBX 58 59 1 -10
BITMAP
000000000000E000
000000000003F000
000000000007F000
00000000000FF000
00000000001FF000
00000000001FE000
00000000003FE000
00000000003FE000
00000000007FC000
00000000007FC000
0000000000FF8000
0000000000FF0000
0000000001FF0000
0000000003FE0000
0000000003FE0000
0000000007FC0000
0000000007FC0000
000000000FF80000
0FFFFFFFFFF00000
1FFFFFFFFFF00000
1FFFFFFFFFE00000
3FFFFFFFFFE00000
7FFFFFFFFFE00000
7FFFFFFFFFF00000
FFFFFFFFFFF00000
7FFFFFFFFFF80000
03FFFFFFFFFC0000
001FFFFFFFFC0000
0000FFFFFFFE0000
000003FFFFFE0000
0000001FFFFF0000
0000001FFFFF0000
0000001FFFFF8000
0000003FFFFFC000
0000003FFFFFC000
0000007FCFFFE000
0000007F87FFE000
000000FF83FFF000
000000FF01FFF000
000001FE00FFF800
000001FE00FFFC00
000003FC007FFC00
000003F8003FFE00
000007F8001FFE00
0003FFF0000FFF00
0007FFE00007FF00
000FFFE00003FF80
001FFFE00001FFC0
003FFFE00001FFC0
003FFFF00000FF80
0001FFF000007F80
00001FF000003F00
000007F800001E00
000003F800000E00
000001F800000400
000001F800000400
000000F000000000
0000007000000000
0000002000000000
ENDCHAR
STARTCHAR 004C
ENCODING 76
SWIDTH 981 0
DWIDTH 60 0
BBX 50 63 5 -12
BITMAP
00000000010000
00000000010000
00000000010000
00000000038000
00000000038000
0000000007C000
0000000007C000
00007FF807E000
0007FFFFEFE000
001FFFFFFFE000
007FFFFFFFF000
00FFFFFFFFF000
01FFFFFFFFF800
03FFFFFFFFF800
07FFFFFFFFF800
0FFC03FFFFFC00
1FC0003FFFFC00
3F00000FFFFE00
38000003FFFE00
60000007FFFE00
8000000FFFFF00
0000000FFFFF00
0000001FFFFF80
0000003FFFFF80
0000003FFFFFC0
0000007FFFFF00
000000FFFF0000
000000FF000000
00000180000000
00000000000000
00000000000000
00000000000000
00000000000000
00000000000000
00000000000000
00000FC0000000
000FFF80000000
0FFFFF80000000
FFFFFF00000000
FFFFFE00000000
7FFFFE00000000
7FFFFC00000000
3FFFF800000000
3FFFF800000180
3FFFF000000700
1FFFF800001E00
1FFFFE0000FE00
0FFFFFC007FC00
0FFFFFFFFFF800
0FFFFFFFFFF000
07FFFFFFFFE000
07FFFFFFFFC000
03FFFFFFFF8000
03FFFFFFFE0000
03FFFFFFF80000
01F83FFFE00000
01F80000000000
00F00000000000
00F00000000000
00E00000000000
00600000000000
00600000000000
00400000000000
ENDCHAR
STARTCHAR 004D
ENCODING 77
SWIDTH 981 0
DWIDTH 60 0
BBX 59 49 0 -5
BITMAP
00001FFF00000000
0000FFFFE0000000
0003FFFFF8000000
000FFFFFFE000000
003FFFFFFF000000
007FFFFFFFC00000
00FFFFFFFFE00000
01FFF807FFF00000
03FFC000FFF80000
07FF00003FF80000
07FE00000FFC0000
0FFC000007FE0000
0FF8000003FE0000
1FF0000001FF0000
1FE0000000FF0000
3FC0000000FF8000
3FC00000007F8000
7F800000007F8000
7F800000003FC000
7F800000403FC020
7F0000003FFFFFC0
7F0000001FFFFF80
7F0000000FFFFF80
FF00000007FFFF00
FF00000007FFFE00
FF00000003FFFC00
7F00000001FFF800
7F00000000FFF000
7F000000007FF000
7F800000003FE000
7F800000001FC000
7F800000001F8000
3FC00000000F0000
3FC0000000060000
1FE0000000020000
1FF0000000000000
1FF8000000000000
0FFC000000000000
07FE000008000000
07FF000038000000
03FFC00078000000
01FFF803F8000000
00FFFFFFFC000000
007FFFFFFC000000
003FFFFFFE000000
000FFFFFFE000000
0003FFFFF8000000
0000FFFFE0000000
00003FFF00000000
ENDCHAR
STARTCHAR 004E
ENCODING 78
SWIDTH 981 0
DWIDTH 60 0
BBX 58 43 1 -2
BITMAP
0000000000003000
000000000000FC00
000000000001FE00
000000000003FF00
000000000007FF80
00000000000FFF80
00000000001FFFC0
00000000003FFFC0
00000000007FFFC0
0000000000FFFF80
0000000001FFFF00
0000000003FFFE00
0000000007FFFC00
0F8000000FFFF800
1FC000001FFFF000
3FE000003FFFE000
7FF000007FFFC000
FFF80000FFFF8000
FFFC0001FFFF0000
FFFE0003FFFE0000
FFFF0007FFFC0000
FFFF800FFFF80000
7FFFC01FFFF00000
3FFFE03FFFE00000
1FFFF07FFFC00000
0FFFF8FFFF800000
07FFFDFFFF000000
03FFFFFFFE000000
01FFFFFFFC000000
00FFFFFFF8000000
007FFFFFF0000000
003FFFFFE0000000
001FFFFFC0000000
000FFFFF80000000
0007FFFF00000000
0003FFFE00000000
0001FFFC00000000
0000FFF800000000
00007FF000000000
00003FE000000000
00001FC000000000
00000F8000000000
0000020000000000
ENDCHAR
STARTCHAR 004F
ENCODING 79
SWIDTH 981 0
DWIDTH 60 0
BBX 58 59 1 -10
BITMAP
0400000000000000
3FFF000000000000
7FFFF00000000000
FFFFFE0000000000
FFFFFF8000000000
FFFFFFF000000000
FFFFFFFC00000000
FFFFFFFE00000000
FFFFFFFF80000000
7FFFFFFFE0000000
3FFFFFFFF0000000
01FFFFFFF8000000
0001FFFFFE000000
00003FFFFF000000
000007FFFF800000
000001FFFFC00000
0000007FFFE00000
0000001FFFF00000
3FF8000FFFF80000
7FFF8003FFFC0000
FFFFE001FFFC0000
FFFFF800FFFE0000
FFFFFE007FFF0000
FFFFFF801FFF8000
FFFFFFC00FFF8000
FFFFFFF00FFFC000
7FFFFFF807FFE000
3FFFFFFC03FFE000
03FFFFFE01FFF000
000FFFFF00FFF000
0001FFFF80FFF800
00007FFF807FF800
00001FFFC07FFC00
00000FFFE03FFC00
000007FFE01FFC00
000003FFF01FFE00
000001FFF81FFE00
000000FFF80FFF00
0000007FFC0FFF00
01F0003FFC07FF00
0FFC003FFC07FF00
1FFF001FFE07FF80
3FFF801FFE03FF80
7FFFC00FFE03FF80
7FFFC00FFF03FF80
FFFFE007FF03FF80
FFFFE007FF03FFC0
FFFFE007FF01FFC0
FFFFE007FF81FFC0
FFFFE003FF81FFC0
FFFFE003FF81FFC0
FFFFE003FF81FFC0
FFFFE003FF81FFC0
7FFFC003FF81FFC0
7FFFC003FF81FFC0
3FFF8003FF01FFC0
1FFF0001FF00FF80
0FFC0000FE007F00
01F0000078001C00
ENDCHAR
STARTCHAR 0050
ENCODING 80
SWIDTH 981 0
DWIDTH 60 0
BBX 55 62 2 -12
BITMAP
000007FFC00000
00001FFFF80000
00007FFFFE0000
0001FFFFFF0000
0003FFFFFFC000
0007FFFFFFE000
001FFFFFFFF000
001FFFFFFFF800
003FFFFFFFFC00
007FFE00FFFC00
00FFF8003FFE00
00FFE0000FFF00
01FFC00007FF00
01FF800003FF80
03FF800001FF80
03FF000001FF80
03FF000000FFC0
03FE000000FFC0
07FE0000007FC0
07FE0000007FC0
07FC0000007FC0
07FC0000007FC0
07FC0000007FC0
07FC0000007FC0
07FC0000007FC0
07FC0000007FC0
07FC0000007FC0
FFFFFFFFFFFFFE
FFFFFFFFFFFFFE
FFFFFFFFFFFFFE
FFFFFFFFFFFFFE
FFFFFFFFFFFFFE
FFFFFFFFFFFFFE
FFFFFFFFFFFFFE
FFFFFFFFFFFFFE
FFFFFFC7FFFFFE
FFFFFF81FFFFFE
FFFFFF01FFFFFE
FFFFFF00FFFFFE
FFFFFE00FFFFFE
FFFFFF00FFFFFE
FFFFFF01FFFFFE
FFFFFF81FFFFFE
FFFFFF83FFFFFE
FFFFFF83FFFFFE
FFFFFF83FFFFFE
FFFFFF83FFFFFE
FFFFFF83FFFFFE
FFFFFF83FFFFFE
FFFFFF83FFFFFE
FFFFFF81FFFFFE
FFFFFF81FFFFFE
FFFFFF81FFFFFE
FFFFFF81FFFFFE
FFFFFFFFFFFFFE
FFFFFFFFFFFFFE
FFFFFFFFFFFFFE
FFFFFFFFFFFFFE
FFFFFFFFFFFFFE
FFFFFFFFFFFFFE
FFFFFFFFFFFFFE
FFFFFFFFFFFFFE
ENDCHAR
STARTCHAR 0051
ENCODING 81
SWIDTH 981 0
DWIDTH 60 0
BBX 59 59 0 -10
BITMAP
000FFFFFFFFE0000
000FFFFFFFFE0000
000FFFFFFFFE0000
000FFFFFFFFE0000
000FFFFFFFFE0000
000FFFFFFFFE0000
000FFFFFFFFE0000
000FFFFFFFFE0000
000FFFFFFFFE0000
000FFFFFFFFE0000
000FFFFFFFFE0000
000FFFFFFFFE0000
000FFFFFFFFE0000
000FFFFFFFFE0000
000FFFFFFFFE0000
000FFFFFFFFE0000
000FFFFFFFFE0000
000FFFFFFFFE0000
000FFFFFFFFE0000
000FFFFFFFFE0000
000FFFFFFFFE0000
000FFFFFFFFE0000
0000000700000000
0000000700000000
0000000700000000
0000000700000000
0000000700000000
0000000700000000
0000000700000000
0000000700000000
0000000700000000
000FFFFFFFFF0000
000FFFFFFFFF0000
000C000000030000
000C000000030000
000C000000030000
000C000000030000
000C000000030000
FFFFFF803FFFFFE0
FFFFFF803FFFFFE0
FFFFFF803FFFFFE0
FFFFFF803FFFFFE0
FFFFFF803FFFFFE0
FFFFFF803FFFFFE0
FFFFFF803FFFFFE0
FFFFFF803FFFFFE0
FFFFFF803FFFFFE0
FFFFFF803FFFFFE0
FFFFFF803FFFFFE0
FFFFFF803FFFFFE0
FFFFFF803FFFFFE0
FFFFFF803FFFFFE0
FFFFFF803FFFFFE0
FFFFFF803FFFFFE0
FFFFFF803FFFFFE0
FFFFFF803FFFFFE0
FFFFFF803FFFFFE0
FFFFFF803FFFFFE0
FFFFFF803FFFFFE0
ENDCHAR
STARTCHAR 0052
ENCODING 82
SWIDTH 981 0
DWIDTH 60 0
BBX 58 35 1 2
BITMAP
0000070000000000
000007C000000000
000003E000000000
000003F000000000
000001F800000000
000001FE00000000
000FFFFF03F80000
00FFFFFF83FF8000
03FFFFFFE3FFE000
07FFFFFFE3FFF800
0FFFFFFFE3FFFC00
1FFFFFFFE3FFFE00
3FFFFFFF83FFFE00
3FFFFFFF03FFFF00
7FE001FE0001FF80
7F8003F80000FF80
FF0003F000007F80
FF0003E000003FC0
FE0007C000003FC0
FE00070000001FC0
FE00000000001FC0
FE00000000001FC0
FE00000000001FC0
FE00000000003FC0
FF00000000003FC0
FF80000000007F80
7FC000000000FF80
7FF000000003FF00
3FFFFFFFFFFFFF00
1FFFFFFFFFFFFE00
1FFFFFFFFFFFFC00
0FFFFFFFFFFFF800
03FFFFFFFFFFF000
01FFFFFFFFFFC000
003FFFFFFFFF0000
ENDCHAR
STARTCHAR 0053
ENCODING 83
SWIDTH 981 0
DWIDTH 60 0
BBX 59 49 0 -5
BITMAP
0000000001C00000
0000000007E00000
000000000FF00000
000000001FF80000
000000003FFC0000
000000007FFE0000
00000000FFFF0000
00000001FFFF8000
00000003FFFFC000
7FFFFF87FFFFE000
FFFFFFCFFFFFF000
FFFFFF9FFFFFF800
FFFFFF3FFFFFFC00
FFFFFE7FFFFFFE00
FFFFFCFFFFFFFF00
FFFFFDFFFFFFFF80
FFFFF9FFFFFFFFC0
FFFFFBFFEFFBFFC0
FFFFFBFF8FF8FFE0
FFE003FE0FF83FC0
FFC001F80FF80FC0
FF87FCC3EFF9E180
FF9FFC1FEFF9F820
FF1FFFFFEFF9FFE0
FF3FFFFFEFF9FFE0
FF3FFFFFEFF9FFE0
FE3FFFFFEFF9FFC0
FE7FFFFFEFF9FFC0
FE7FFFFFEFF9FFC0
FE7FFFFFEFF9FF80
FC7FFFFFEFF9FF80
FCFFFFFFEFF9FF80
FCFFFFFFEFF9FF80
FCFFFFFFEFF9FF00
F9FFFFFFEFF9FF00
F9FFFFFFEFF9FF00
F9FFFFFFEFF9FE00
F1FFFFFFEFFBFE00
F3FFFFFFE7FBFE00
F3FFFFFFF1E3FE00
F3FFFFFFF80FFC00
E7FFFFFFFFFFFC00
E7FFFFFFFFFFFC00
E7FFFFFFFFFFF800
47FFFFFFFFFFF800
0FFFFFFFFFFFF800
0FFFFFFFFFFFF800
0FFFFFFFFFFFF000
0FFFFFFFFFFFE000
ENDCHAR
STARTCHAR 0054
ENCODING 84
SWIDTH 981 0
DWIDTH 60 0
BBX 59 59 0 -10
BITMAP
0000001F80000000
000003FFFC000000
00001FFFFF800000
0000FFFFFFE00000
0001FFFFFFF80000
0007FFFFFFFC0000
000FFFFFFFFF0000
003FFFFFFFFF8000
007FFFFFFFFFC000
00FFFFC03FFFE000
01FFFC0007FFF000
01FFF00001FFF800
03FFC000007FF800
07FFC000003FFC00
07FFE000000FFE00
0FFFF0000007FE00
1FFFF8000007FF00
1FFFFC000003FF00
1FF3FE000001FF80
3FF1FF000001FF80
3FE0FF800000FF80
3FE07FC000007FC0
7FC03FE000007FC0
7FC01FF000007FC0
7FC00FF800003FC0
7FC007FC00003FE0
7F8003FE00003FE0
7F8001FF00003FE0
FF8000FF80003FE0
FF80007FC0003FE0
FF80003FE0003FE0
FF80001FF0003FE0
7F80000FF8003FE0
7F800007FC003FE0
7FC00003FE003FC0
7FC00001FF007FC0
7FC00000FF807FC0
7FE000007FC07FC0
3FE000003FE0FFC0
3FF000001FF0FF80
3FF000000FF9FF80
1FF8000007FFFF00
1FFC000003FFFF00
0FFE000001FFFE00
0FFF000000FFFE00
07FF8000007FFC00
03FFC000007FFC00
03FFF00000FFF800
01FFFC0003FFF000
00FFFF801FFFE000
007FFFFFFFFFC000
003FFFFFFFFF8000
001FFFFFFFFF0000
0007FFFFFFFE0000
0003FFFFFFF80000
0000FFFFFFE00000
00003FFFFF800000
000007FFFC000000
0000007FC0000000
ENDCHAR
STARTCHAR 0055
ENCODING 85
SWIDTH 981 0
DWIDTH 60 0
BBX 59 53 0 -7
BITMAP
0000000200000000
0000000700000000
0000000F00000000
0000001F00000000
0000003F00000000
0000007F00000000
000000FF00000000
000001FF00000000
000001FF00000000
000003FF00000000
000007FF00000000
00000FFF00000000
00001FFF00000000
00003FFF00000000
00007FFF00000000
0000FFFF00000000
7FFFFFFF00000000
FFFFFFFF00000000
FFFFFFFF00000000
FFFFFFFF00000000
FFFFFFFF00000000
FFFFFFFF00000000
FFFFFFFF00000000
FFFFFFFF03FFFFE0
FFFFFFFF03FFFFE0
FFFFFFFF03FFFFE0
FFFFFFFF03FFFFE0
FFFFFFFF03FFFFE0
FFFFFFFF03FFFFE0
FFFFFFFF03FFFFE0
FFFFFFFF00000000
FFFFFFFF00000000
FFFFFFFF00000000
FFFFFFFF00000000
FFFFFFFF00000000
FFFFFFFF00000000
7FFFFFFF00000000
0000FFFF00000000
00007FFF00000000
00003FFF00000000
00001FFF00000000
00000FFF00000000
000007FF00000000
000003FF00000000
000001FF00000000
000001FF00000000
000000FF00000000
0000007F00000000
0000003F00000000
0000001F00000000
0000000F00000000
0000000700000000
0000000200000000
ENDCHAR
STARTCHAR 0056
ENCODING 86
SWIDTH 981 0
DWIDTH 60 0
BBX 58 54 1 -8
BITMAP
0000000700000000
0000000780000000
0000000F80000000
0000001F80000000
0000003F80000000
0000007F80000000
000000FF80000000
000001FF80000000
000003FF80000000
000007FF80000000
00000FFF80000000
00001FFF80000000
00003FFF80000000
00007FFF80000000
0000FFFF80000000
0001FFFF80000000
FFFFFFFF800FE000
FFFFFFFF800FE000
FFFFFFFF800FE000
FFFFFFFF800FE000
FFFFFFFF800FE000
FFFFFFFF800FE000
FFFFFFFF800FE000
FFFFFFFF8FFFFFC0
FFFFFFFF8FFFFFC0
FFFFFFFF8FFFFFC0
FFFFFFFF8FFFFFC0
FFFFFFFF8FFFFFC0
FFFFFFFF8FFFFFC0
FFFFFFFF8FFFFFC0
FFFFFFFF800FE000
FFFFFFFF800FE000
FFFFFFFF800FE000
FFFFFFFF800FE000
FFFFFFFF800FE000
FFFFFFFF800FE000
FFFFFFFF800FE000
0001FFFF800FC000
0000FFFF80000000
00007FFF80000000
00003FFF80000000
00001FFF80000000
00000FFF80000000
000007FF80000000
000003FF80000000
000001FF80000000
000000FF80000000
0000007F80000000
0000007F80000000
0000003F80000000
0000001F80000000
0000000F80000000
0000000700000000
0000000200000000
ENDCHAR
STARTCHAR 0057
ENCODING 87
SWIDTH 981 0
DWIDTH 60 0
BBX 58 57 1 -9
BITMAP
00040000007F0000
00FFE00003FFE000
03FFF8000FFFF000
0FFFFC001FFFFC00
1FFFFF003FFFFE00
3FFFFF007FFFFE00
7FFFFF80FFFFFF00
7FFFFFC1FFFFFF80
FFFFFFE3FFFFFF80
FFFFFFE3FFFFFF80
FFFFFFF7FFFFFFC0
FFFFFFFFFFFFFFC0
FFFFFFFFFFFFFFC0
FFFFFFFFFFFFFFC0
FFFFFFFFFFFFFFC0
FFFFFFFFFFFFFFC0
FFFFFFFFFFFFFFC0
FFFFFFFFFFFFFFC0
7FFFFFFFFFFFFFC0
7FFFFFFFFFFFFF80
3FFFFFFFFFFFFF80
3FFFFFFFFFFFFF00
1FFFFFFFFFFFFF00
1FFFFFFFFFFFFE00
0FFFFFFFFFFFFC00
07FFFFFFFFFFF800
03FFFFFFFFFFF000
01FFFFFFFFFFF000
00FFFFFFFFFFE000
007FFFFFFFFFC000
003FFFFFFFFF8000
001FFFFFFFFF0000
000FFFFFFFFE0000
0007FFFFFFFC0000
0003FFFFFFF80000
0001FFFFFFF00000
0000FFFFFFE00000
00007FFFFFC00000
00003FFFFF800000
00001FFFFF000000
00000FFFFE000000
000007FFFC000000
000003FFF8000000
000003FFF8000000
000001FFF0000000
000000FFE0000000
0000007FC0000000
0000003F80000000
0000003F80000000
0000001F00000000
0000001E00000000
0000000E00000000
0000000C00000000
0000000C00000000
0000000C00000000
0000000400000000
0000000400000000
ENDCHAR
STARTCHAR 0058
ENCODING 88
SWIDTH 981 0
DWIDTH 60 0
BBX 49 63 5 -12
BITMAP
00020000000000
000F8000000000
001FC000000000
001FC000000000
001FC000000000
001FC000000000
001FC000000000
001FC000000000
001FC000000000
001FC000000000
001FC000000000
001FC000000000
001FC000000000
001FC000000000
001FC000000000
001FC000000000
001FC000000000
001FC000000000
001FC1E0000000
001FC3F0000000
001FC3F0000000
001FC3F0780000
001FC3F0FC0000
001FC3F0FE0E00
001FC3F0FE1F80
001FC3F0FE1F80
181FC3F0FE1F80
7E1FC3F0FE1F80
7E1FC7F9FE3F80
FE1FFFFFFFFF80
FE1FFFFFFFFF80
FE1FFFFFFFFF80
FE1FFFFFFFFF80
FE1FFFFFFFFF80
FE1FFFFFFFFF80
FE1FFFFFFFFF80
FE1FFFFFFFFF80
FE1FFFFFFFFF80
FE1FFFFFFFFF80
FE1FFFFFFFFF80
FFFFFFFFFFFF80
FFFFFFFFFFFF80
FFFFFFFFFFFF80
7FFFFFFFFFFF80
7FFFFFFFFFFF80
7FFFFFFFFFFF80
3FFFFFFFFFFF80
3FFFFFFFFFFF80
1FFFFFFFFFFF80
0FFFFFFFFFFF80
0FFFFFFFFFFF80
07FFFFFFFFFF80
03FFFFFFFFFF80
03FFFFFFFFFF80
01FFFFFFFFFF80
01FFFFFFFFFF80
00FFFFFFFFFF80
007FFFFFFFFF80
007FFFFFFFFF80
003FFFFFFFFF80
001FFFFFFFFF00
000FFFFFFFFE00
0007FFFFFFF800
ENDCHAR
STARTCHAR 0059
ENCODING 89
SWIDTH 981 0
DWIDTH 60 0
BBX 44 63 8 -12
BITMAP
000004000000
00001F000000
00001F800000
00001F800000
00001F800000
00001F800000
001C1F838000
007E1F8FC000
007E1F8FC000
007E1F8FC000
007E1F8FC000
007E1F8FC000
007E1F8FC000
007E1F8FC0C0
007E1F8FC3E0
007E1F8FC3F0
007E1F8FC3F0
007E1F8FC3F0
007E1F8FC3F0
007E1F8FC3F0
007E1F8FC3F0
007E1F8FC3F0
007E1F8FC3F0
007E1F8FC3F0
007E1F8FC3F0
007E1F8FC3F0
007E1F8FC3F0
007E1F8FC3F0
007E1F8FC3F0
007E1F8FC3F0
F87E1F8FC3F0
FC7F3F8FE7F0
FC7FFFFFFFF0
FC7FFFFFFFF0
FC7FFFFFFFF0
FC7FFFFFFFF0
FC7FFFFFFFF0
FC7FFFFFFFF0
FC7FFFFFFFF0
FC7FFFFFFFF0
FC7FFFFFFFF0
FC7FFFFFFFF0
FFFFFFFFFFF0
FFFFFFFFFFF0
FFFFFFFFFFF0
FFFFFFFFFFF0
FFFFFFFFFFF0
FFFFFFFFFFF0
7FFFFFFFFFF0
3FFFFFFFFFF0
3FFFFFFFFFF0
1FFFFFFFFFF0
0FFFFFFFFFF0
0FFFFFFFFFF0
07FFFFFFFFF0
03FFFFFFFFF0
03FFFFFFFFF0
01FFFFFFFFF0
00FFFFFFFFF0
00FFFFFFFFE0
007FFFFFFFE0
003FFFFFFFC0
001FFFFFFF00
ENDCHAR
STARTCHAR 005A
ENCODING 90
SWIDTH 981 0
DWIDTH 60 0
BBX 59 59 0 -9
BITMAP
000000000000E000
000000000000F000
00000000C000F800
00000000E000F800
00000001F000F800
00000003F0007C00
00000007F0007C00
0000000FF0003E00
0000001FF0003E00
0000003FF0703F00
0000007FF0781F00
000000FFF0781F00
000001FFF07C1F80
000003FFF07C1F80
000007FFF07C0F80
00000FFFF03E0F80
00001FFFF03E0FC0
00001FFFF03E0FC0
00003FFFF03F0FC0
7FFFFFFFF03F0FC0
FFFFFFFFF01F07E0
FFFFFFFFF01F07E0
FFFFFFFFF01F07E0
FFFFFFFFF01F07E0
FFFFFFFFF01F87E0
FFFFFFFFF01F87E0
FFFFFFFFF01F87E0
FFFFFFFFF01F87E0
FFFFFFFFF01F87E0
FFFFFFFFF01F87E0
FFFFFFFFF01F87E0
FFFFFFFFF01F87E0
FFFFFFFFF01F87E0
FFFFFFFFF01F87E0
FFFFFFFFF01F87E0
FFFFFFFFF01F07E0
FFFFFFFFF01F07E0
FFFFFFFFF01F07E0
FFFFFFFFF01F07C0
FFFFFFFFF03F0FC0
FFFFFFFFF03E0FC0
7FFFFFFFF03E0FC0
00007FFFF03E0FC0
00003FFFF03E0F80
00001FFFF07C0F80
00000FFFF07C1F80
000007FFF07C1F80
000003FFF0781F00
000001FFF0F83F00
000000FFF0703E00
0000007FF0203E00
0000003FF0003E00
0000003FF0007C00
0000001FF0007C00
0000000FF000F800
00000007F000F800
00000003F000F000
00000001E000F000
00000000E000E000
ENDCHAR
STARTCHAR 005B
ENCODING 91
SWIDTH 981 0
DWIDTH 60 0
BBX 58 57 1 -9
BITMAP
8000000000000000
E000000000000000
F800000000000000
FE00000000000000
FF80000000000000
FFE0000000000000
FFF8000000000000
FFFE000000000000
FFFF800000000000
FFFFE00000000000
FFFFF80000000000
FFFFFE0000000000
FFFFFF8000000000
FFFFFFE000000000
FFFFFFF800000000
FFFFFFFE00000000
FFFFFFFF80000000
FFFFFFFFE0000000
FFFFFFFFF8000000
FFFFFFFFFE000000
FFFFFFFFFF800000
FFFFFFFFFFE00000
FFFFFFFFFFF80000
FFFFFFFFFFFE0000
FFFFFFFFFFFF8000
FFFFFFFFFFFFE000
FFFFFFFFFFFFF800
FFFFFFFFFFFFFE00
FFFFFFFFFFFFFFC0
FFFFFFFFFFFFFF00
FFFFFFFFFFFFFC00
FFFFFFFFFFFFF000
FFFFFFFFFFFFC000
FFFFFFFFFFFF0000
FFFFFFFFFFFC0000
FFFFFFFFFFF00000
FFFFFFFFFFC00000
FFFFFFFFFF000000
FFFFFFFFFC000000
FFFFFFFFF0000000
FFFFFFFFC0000000
FFFFFFFF00000000
FFFFFFFC00000000
FFFFFFF000000000
FFFFFFC000000000
FFFFFF0000000000
FFFFFC0000000000
FFFFF00000000000
FFFFC00000000000
FFFF000000000000
FFFC000000000000
FFF0000000000000
FFC0000000000000
FF00000000000000
FC00000000000000
F000000000000000
C000000000000000
ENDCHAR
STARTCHAR 005C
ENCODING 92
SWIDTH 981 0
DWIDTH 60 0
BBX 59 59 0 -10
BITMAP
FFFFFFFFFFFFFFE0
7FFFFFFFFFFFFFC0
3FFFFFFFFFFFFFC0
3FFFFFFFFFFFFF80
1FFFFFFFFFFFFF80
1FFFFFFFFFFFFF00
0FFFFFFFFFFFFF00
0FFFFFFFFFFFFE00
07FFFFFFFFFFFE00
07FFFFFFFFFFFC00
03FFFFFFFFFFFC00
03FFFFFFFFFFF800
01FFFFFFFFFFF800
01FFFFFFFFFFF000
00FFFFFFFFFFF000
00FFFFFFFFFFE000
007FFFFFFFFFE000
007FFFFFFFFFC000
003FFFFFFFFFC000
003FFFFFFFFF8000
001FFFFFFFFF8000
001FFFFFFFFF0000
000FFFFFFFFF0000
000FFFFFFFFE0000
0007FFFFFFFE0000
0007FFFFFFFC0000
0003FFFFFFFC0000
0003FFFFFFF80000
0001FFFFFFF80000
0001FFFFFFF00000
0000FFFFFFF00000
0000FFFFFFE00000
00007FFFFFE00000
00007FFFFFC00000
00003FFFFFC00000
00003FFFFF800000
00001FFFFF800000
00001FFFFF000000
00000FFFFF000000
00000FFFFE000000
000007FFFE000000
000007FFFC000000
000003FFFC000000
000003FFF8000000
000001FFF8000000
000001FFF0000000
000000FFF0000000
000000FFE0000000
0000007FE0000000
0000007FC0000000
0000003FC0000000
0000003F80000000
0000001F80000000
0000001F00000000
0000000F00000000
0000000E00000000
0000000600000000
0000000400000000
0000000400000000
ENDCHAR
STARTCHAR 005D
ENCODING 93
SWIDTH 981 0
DWIDTH 60 0
BBX 58 59 1 -10
BITMAP
0000000000000040
00000000000000C0
00000000000003C0
0000000000000FC0
0000000000003FC0
000000000000FFC0
000000000003FFC0
00000000000FFFC0
00000000003FFFC0
0000000000FFFFC0
0000000003FFFFC0
000000000FFFFFC0
000000003FFFFFC0
00000000FFFFFFC0
00000003FFFFFFC0
0000000FFFFFFFC0
0000003FFFFFFFC0
000000FFFFFFFFC0
000003FFFFFFFFC0
00000FFFFFFFFFC0
00003FFFFFFFFFC0
0000FFFFFFFFFFC0
0003FFFFFFFFFFC0
000FFFFFFFFFFFC0
003FFFFFFFFFFFC0
00FFFFFFFFFFFFC0
03FFFFFFFFFFFFC0
0FFFFFFFFFFFFFC0
3FFFFFFFFFFFFFC0
FFFFFFFFFFFFFFC0
7FFFFFFFFFFFFFC0
1FFFFFFFFFFFFFC0
07FFFFFFFFFFFFC0
01FFFFFFFFFFFFC0
007FFFFFFFFFFFC0
001FFFFFFFFFFFC0
0007FFFFFFFFFFC0
0001FFFFFFFFFFC0
00007FFFFFFFFFC0
00001FFFFFFFFFC0
000007FFFFFFFFC0
000001FFFFFFFFC0
0000007FFFFFFFC0
0000001FFFFFFFC0
00000007FFFFFFC0
00000001FFFFFFC0
000000007FFFFFC0
000000001FFFFFC0
0000000007FFFFC0
0000000001FFFFC0
00000000007FFFC0
00000000001FFFC0
000000000007FFC0
000000000001FFC0
0000000000007FC0
0000000000001FC0
00000000000007C0
00000000000001C0
0000000000000040
ENDCHAR
STARTCHAR 005E
ENCODING 94
SWIDTH 981 0
DWIDTH 60 0
BBX 58 21 1 9
BITMAP
0040000000010000
0040000000008000
008000000000C000
0180000000006000
0380000000007000
0700000000007800
0F00000000003C00
1F00000000003E00
3FFFFFFFFFFFFF00
7FFFFFFFFFFFFF80
FFFFFFFFFFFFFFC0
FFFFFFFFFFFFFF80
7FFFFFFFFFFFFF00
3E00000000003E00
1F00000000003C00
0F00000000007800
0700000000007000
0380000000006000
018000000000C000
0080000000008000
0040000000010000
ENDCHAR
STARTCHAR 005F
ENCODING 95
SWIDTH 981 0
DWIDTH 60 0
BBX 22 63 19 -12
BITMAP
002000
003000
007800
00FC00
01FE00
03FF00
07FF80
0FFFC0
1FFFE0
3CFCF0
60FC18
80FC04
00FC00
00FC00
00FC00
00FC00
00FC00
00FC00
00FC00
00FC00
00FC00
00FC00
00FC00
00FC00
00FC00
00FC00
00FC00
00FC00
00FC00
00FC00
00FC00
00FC00
00FC00
00FC00
00FC00
00FC00
00FC00
00FC00
00FC00
00FC00
00FC00
00FC00
00FC00
00FC00
00FC00
00FC00
00FC00
00FC00
00FC00
00FC00
00FC00
00FC04
C0FC08
78FC70
3FFFE0
1FFFC0
0FFF80
07FF00
03FE00
01FC00
00F800
007000
002000
ENDCHAR
STARTCHAR 0060
ENCODING 96
SWIDTH 981 0
DWIDTH 60 0
BBX 22 63 19 -12
BITMAP
00FC00
00FC00
00FC00
00FC00
00FC00
00FC00
00FC00
00FC00
00FC00
00FC00
00FC00
00FC00
00FC00
00FC00
00FC00
00FC00
00FC00
00FC00
00FC00
00FC00
00FC00
00FC00
00FC00
00FC00
00FC00
00FC00
00FC00
00FC00
00FC00
00FC00
00FC00
00FC00
00FC00
00FC00
00FC00
00FC00
00FC00
00FC00
00FC00
00FC00
00FC00
00FC00
00FC00
00FC00
00FC00
00FC00
00FC00
00FC00
00FC00
00FC00
00FC00
00FC00
C0FC0C
38FC70
1FFFE0
0FFFC0
07FF80
03FF00
01FE00
00FC00
007800
003000
002000
ENDCHAR
STARTCHAR 0061
ENCODING 97
SWIDTH 981 0
DWIDTH 60 0
BBX 59 34 0 3
BITMAP
0000000000002000
0000000000002000
0000000000006000
000000000000E000
00000FFE0000E000
00007FFFC001F000
0001FFFFF801F000
0003FFFFFE03F000
0007FFFFFF83F000
001FFFFFFFE7F800
003FFFFFFFFFF800
007FFFFFFFFFF800
007FFFFFFFFFF800
00FFFFFFFFFFFC00
01FFFFFFFFFFFC00
03FFFFFFFFFFFC00
03FFFFFFFFFFFE00
07FE003FFFFFFE00
0FF00007FFFFFE00
0FC00001FFFFFE00
1F800000FFFFFF00
1E0000003FFFFF00
3C0000003FFFFF00
300000007FFFFF00
60000000FFFFFF80
40000000FFFFFF80
80000001FFFFFF80
00000003FFFFFF80
00000007FFFFFFC0
0000000FFFFFFFC0
0000001FFFFFFFC0
0000001FFFFFFFE0
0000003FFFFFFFE0
0000007FFFFFFFE0
ENDCHAR
STARTCHAR 0062
ENCODING 98
SWIDTH 981 0
DWIDTH 60 0
BBX 58 33 1 3
BITMAP
0080000000000000
00C0000000000000
00C0000000000000
00E00003F0000000
01E0007FFF000000
01F001FFFFC00000
01F80FFFFFF00000
01F81FFFFFF80000
03FC7FFFFFFE0000
03FDFFFFFFFF0000
03FFFFFFFFFF8000
03FFFFFFFFFF8000
07FFFFFFFFFFC000
07FFFFFFFFFFE000
07FFFFFFFFFFF000
07FFFFFFFFFFF000
0FFFFFFF803FF800
0FFFFFFC0007FC00
0FFFFFF00000FC00
1FFFFFE000007E00
1FFFFF8000001E00
1FFFFF8000000F00
1FFFFF8000000300
3FFFFFC000000180
3FFFFFE000000080
3FFFFFF000000040
3FFFFFF800000000
7FFFFFF800000000
7FFFFFFC00000000
7FFFFFFE00000000
FFFFFFFF00000000
FFFFFFFF80000000
FFFFFFFFC0000000
ENDCHAR
STARTCHAR 0063
ENCODING 99
SWIDTH 981 0
DWIDTH 60 0
BBX 58 63 1 -12
BITMAP
000000FFC0000000
000001FFE0000000
000003FFF0000000
000003FFF0000000
000003FFF0000000
000003FFF0000000
000003FFF0000000
000003FFF0000000
000003FFF0000000
000003FFF0000000
000003FFF0000000
000003FFF0000000
000003FFF0000000
000003FFF0000000
000003FFF0000000
000003FFF0000000
000003FFF0000000
000003FFF0000000
000003FFF0000000
000003FFF0000000
000003FFF0000000
000003FFF0000000
000003FFF0000000
000003FFF0000000
000003FFF0000000
000003FFF0000000
000003FFF0000000
000003FFF0000000
180003FFF0000400
7F0003FFF0007F00
FFC003FFF001FF80
FFF003FFF007FF80
FFFC03FFF01FFFC0
FFFF03FFF07FFFC0
FFFFC3FFF1FFFFC0
FFFFFBFFF7FFFF80
FFFFFFFFFFFFFF80
7FFFFFFFFFFFFF00
3FFFFFFFFFFFFE00
1FFFFFFFFFFFFC00
0FFFFFFFFFFFF800
07FFFFFFFFFFF000
03FFFFFFFFFFE000
01FFFFFFFFFFC000
00FFFFFFFFFF8000
007FFFFFFFFF0000
003FFFFFFFFE0000
001FFFFFFFFC0000
000FFFFFFFF80000
0007FFFFFFF00000
0003FFFFFFE00000
0001FFFFFFC00000
0000FFFFFF800000
00007FFFFF000000
00003FFFFE000000
00001FFFFC000000
00000FFFF8000000
000007FFF0000000
000003FFE0000000
000001FFC0000000
000000FF80000000
0000007F00000000
0000000800000000
ENDCHAR
STARTCHAR 0064
ENCODING 100
SWIDTH 981 0
DWIDTH 60 0
BBX 58 59 1 -10
BITMAP
0000000000018000
000000000007E000
00000000000FF000
00000000001FF800
00000000003FFC00
00000000007FFE00
0F00000000FFFF00
1FC0000001FFFF80
3FC0000003FFFF80
7FE0000007FFFF80
FFF000000FFFFFC0
FFF000001FFFFF80
FFF800003FFFFF80
FFF800007FFFFF00
FFF80000FFFFFE00
FFFC0001FFFFFC00
FFFC0003FFFFF800
FFFC0007FFFFF000
FFFE000FFFFFE000
FFFE001FFFFFC000
FFFE003FFFFF8000
FFFF007FFFFF0000
FFFF00FFFFFE0000
FFFF01FFFFFC0000
FFFF83FFFFF80000
FFFF87FFFFF00000
FFFF8FFFFFE00000
FFFFDFFFFFC00000
FFFFFFFFFF800000
FFFFFFFFFF000000
FFFFFFFFFE000000
FFFFFFFFFC000000
FFFFFFFFF8000000
FFFFFFFFF0000000
FFFFFFFFE0000000
FFFFFFFFC0000000
FFFFFFFF80000000
FFFFFFFF00000000
FFFFFFFE00000000
FFFFFFFC00000000
FFFFFFFC00000000
FFFFFFFF00000000
FFFFFFFFE0000000
FFFFFFFFFC000000
FFFFFFFFFF800000
FFFFFFFFFFF00000
FFFFFFFFFFFE0000
FFFFFFFFFFFF8000
FFFFFFFFFFFFC000
FFFFFFFFFFFFE000
FFFFFFFFFFFFF000
FFFFFFFFFFFFF000
FFFFFFFFFFFFF000
FFFFFFFFFFFFF000
FFFFFFFFFFFFF000
7FFFFFFFFFFFE000
3FFFFFFFFFFFE000
1FFFFFFFFFFFC000
0FFFFFFFFFFF0000
ENDCHAR
STARTCHAR 0065
ENCODING 101
SWIDTH 981 0
DWIDTH 60 0
BBX 58 59 1 -10
BITMAP
0060000000000000
01F8000000000000
03FC000000000000
07FE000000000000
0FFF000000000000
1FFF800000000000
3FFFC00000007800
7FFFE0000000FE00
FFFFF0000001FF00
FFFFF8000003FF80
FFFFFC000003FF80
FFFFFE000007FF80
7FFFFF000007FFC0
7FFFFF80000FFFC0
3FFFFFC0000FFFC0
1FFFFFE0000FFFC0
0FFFFFF0001FFFC0
07FFFFF8001FFFC0
03FFFFFC001FFFC0
01FFFFFE003FFFC0
00FFFFFF003FFFC0
007FFFFF803FFFC0
003FFFFFC07FFFC0
001FFFFFE07FFFC0
000FFFFFF07FFFC0
0007FFFFF8FFFFC0
0003FFFFFCFFFFC0
0001FFFFFEFFFFC0
0000FFFFFFFFFFC0
00007FFFFFFFFFC0
00003FFFFFFFFFC0
00001FFFFFFFFFC0
00000FFFFFFFFFC0
000007FFFFFFFFC0
000003FFFFFFFFC0
000001FFFFFFFFC0
000000FFFFFFFFC0
0000007FFFFFFFC0
0000003FFFFFFFC0
0000001FFFFFFFC0
0000001FFFFFFFC0
0000007FFFFFFFC0
000003FFFFFFFFC0
00001FFFFFFFFFC0
0000FFFFFFFFFFC0
0007FFFFFFFFFFC0
001FFFFFFFFFFFC0
007FFFFFFFFFFFC0
01FFFFFFFFFFFFC0
03FFFFFFFFFFFFC0
07FFFFFFFFFFFFC0
07FFFFFFFFFFFFC0
07FFFFFFFFFFFFC0
07FFFFFFFFFFFF80
03FFFFFFFFFFFF80
03FFFFFFFFFFFF80
01FFFFFFFFFFFF00
00FFFFFFFFFFFE00
003FFFFFFFFFF800
ENDCHAR
STARTCHAR 0066
ENCODING 102
SWIDTH 981 0
DWIDTH 60 0
BBX 59 54 0 -8
BITMAP
0000007C00000000
000000FF00000000
000001FF00000000
000003FF00000000
000007FF00000000
00000FFF00000000
00001FFF00000000
00003FFF00000000
00007FFE00000000
0000FFFE00000000
0001FFFC00000000
0003FFFC00000000
0007FFF800000000
000FFFF800000000
001FFFF000000000
003FFFF000000000
007FFFE000000000
00FFFFE000000000
01FFFFC000000000
03FFFFC000000000
07FFFF8000000000
0FFFFFFFFFFFFF80
1FFFFFFFFFFFFFC0
3FFFFFFFFFFFFFE0
7FFFFFFFFFFFFFE0
7FFFFFFFFFFFFFE0
FFFFFFFFFFFFFFE0
FFFFFFFFFFFFFFE0
7FFFFFFFFFFFFFE0
7FFFFFFFFFFFFFE0
3FFFFFFFFFFFFFE0
1FFFFFFFFFFFFFE0
0FFFFFFFFFFFFFC0
07FFFFFFFFFFFF80
03FFFFC000000000
01FFFFC000000000
00FFFFE000000000
007FFFE000000000
003FFFF000000000
001FFFF000000000
000FFFF800000000
0007FFF800000000
0003FFFC00000000
0001FFFC00000000
0000FFFE00000000
00007FFE00000000
00003FFF00000000
00001FFF00000000
00000FFF00000000
000007FF00000000
000003FF00000000
000001FF00000000
000000FF00000000
0000007C00000000
ENDCHAR
STARTCHAR 0067
ENCODING 103
SWIDTH 981 0
DWIDTH 60 0
BBX 59 55 0 -8
BITMAP
0000000180000000
0000000FE0000000
0000001FF0000000
0000001FF8000000
0000001FFC000000
0000001FFE000000
0000001FFF000000
0000000FFF800000
0000000FFFC00000
00000007FFE00000
00000007FFF00000
00000003FFF80000
00000003FFFC0000
00000001FFFE0000
00000001FFFF0000
00000000FFFF8000
00000000FFFFC000
000000007FFFE000
000000007FFFF000
000000007FFFF800
000000003FFFFC00
0FFFFFFFFFFFFE00
3FFFFFFFFFFFFF00
7FFFFFFFFFFFFF80
7FFFFFFFFFFFFFC0
FFFFFFFFFFFFFFE0
FFFFFFFFFFFFFFE0
FFFFFFFFFFFFFFE0
FFFFFFFFFFFFFFE0
FFFFFFFFFFFFFFE0
FFFFFFFFFFFFFFC0
7FFFFFFFFFFFFFC0
7FFFFFFFFFFFFF80
7FFFFFFFFFFFFF00
1FFFFFFFFFFFFE00
000000003FFFFC00
000000007FFFF800
000000007FFFF000
00000000FFFFE000
00000000FFFFC000
00000001FFFF8000
00000001FFFF0000
00000003FFFE0000
00000003FFFC0000
00000007FFF80000
00000007FFF00000
0000000FFFE00000
0000000FFFC00000
0000000FFF800000
0000001FFF000000
0000001FFE000000
0000001FFC000000
0000001FF8000000
0000000FF0000000
00000003C0000000
ENDCHAR
STARTCHAR 0068
ENCODING 104
SWIDTH 981 0
DWIDTH 60 0
BBX 58 63 1 -12
BITMAP
0000000800000000
0000007F00000000
000000FF80000000
000001FFC0000000
000003FFE0000000
000007FFF0000000
00000FFFF8000000
00001FFFFC000000
00003FFFFE000000
00007FFFFF000000
0000FFFFFF800000
0001FFFFFFC00000
0003FFFFFFE00000
0007FFFFFFF00000
000FFFFFFFF80000
001FFFFFFFFC0000
003FFFFFFFFE0000
007FFFFFFFFF0000
00FFFFFFFFFF8000
01FFFFFFFFFFC000
03FFFFFFFFFFE000
07FFFFFFFFFFF000
0FFFFFFFFFFFF800
1FFFFFFFFFFFFC00
3FFFFFFFFFFFFE00
7FFFFFFFFFFFFF00
7FFFFFFFFFFFFF80
FFFFFBFFF7FFFFC0
FFFFE3FFF1FFFFC0
FFFF83FFF07FFFC0
FFFE03FFF01FFFC0
FFF803FFF007FFC0
7FE003FFF001FF80
7F0003FFF0007F00
180003FFF0000600
000003FFF0000000
000003FFF0000000
000003FFF0000000
000003FFF0000000
000003FFF0000000
000003FFF0000000
000003FFF0000000
000003FFF0000000
000003FFF0000000
000003FFF0000000
000003FFF0000000
000003FFF0000000
000003FFF0000000
000003FFF0000000
000003FFF0000000
000003FFF0000000
000003FFF0000000
000003FFF0000000
000003FFF0000000
000003FFF0000000
000003FFF0000000
000003FFF0000000
000003FFF0000000
000003FFF0000000
000003FFF0000000
000003FFF0000000
000001FFE0000000
000000FFC0000000
ENDCHAR
STARTCHAR 0069
ENCODING 105
SWIDTH 981 0
DWIDTH 60 0
BBX 59 59 0 -10
BITMAP
07FFFFFFFFFFC000
1FFFFFFFFFFFE000
3FFFFFFFFFFFF000
7FFFFFFFFFFFF800
7FFFFFFFFFFFF800
7FFFFFFFFFFFFC00
FFFFFFFFFFFFFC00
FFFFFFFFFFFFFC00
FFFFFFFFFFFFFC00
FFFFFFFFFFFFF800
FFFFFFFFFFFFF000
FFFFFFFFFFFFC000
FFFFFFFFFFFF0000
FFFFFFFFFFFC0000
FFFFFFFFFFE00000
FFFFFFFFFF000000
FFFFFFFFF8000000
FFFFFFFFC0000000
FFFFFFFE00000000
FFFFFFFE00000000
FFFFFFFF00000000
FFFFFFFF80000000
FFFFFFFFC0000000
FFFFFFFFE0000000
FFFFFFFFF0000000
FFFFFFFFF8000000
FFFFFFFFFC000000
FFFFFFFFFE000000
FFFFFFFFFF000000
FFFFFFFFFF800000
FFFFFFFFFFC00000
FFFFFFFFFFE00000
FFFFCFFFFFF00000
FFFFC7FFFFF80000
FFFFC3FFFFFC0000
FFFF81FFFFFE0000
FFFF80FFFFFF0000
FFFF807FFFFF8000
FFFF003FFFFFC000
FFFF001FFFFFE000
FFFF000FFFFFF000
FFFE0007FFFFF800
FFFE0003FFFFFC00
FFFE0001FFFFFE00
FFFC0000FFFFFF00
FFFC00007FFFFF80
FFFC00003FFFFFC0
7FF800001FFFFFE0
7FF800000FFFFFE0
7FF0000007FFFFE0
3FF0000003FFFFE0
1FE0000001FFFFE0
0FC0000000FFFFC0
00000000007FFF80
00000000003FFF00
00000000001FFE00
00000000000FFC00
000000000007F800
000000000003F000
ENDCHAR
STARTCHAR 006A
ENCODING 106
SWIDTH 981 0
DWIDTH 60 0
BBX 58 59 1 -10
BITMAP
007FFFFFFFFFFC00
01FFFFFFFFFFFE00
03FFFFFFFFFFFF00
03FFFFFFFFFFFF80
07FFFFFFFFFFFFC0
07FFFFFFFFFFFFC0
07FFFFFFFFFFFFC0
07FFFFFFFFFFFFC0
07FFFFFFFFFFFFC0
03FFFFFFFFFFFFC0
01FFFFFFFFFFFFC0
00FFFFFFFFFFFFC0
003FFFFFFFFFFFC0
0007FFFFFFFFFFC0
0000FFFFFFFFFFC0
00001FFFFFFFFFC0
000003FFFFFFFFC0
0000007FFFFFFFC0
0000001FFFFFFFC0
0000001FFFFFFFC0
0000003FFFFFFFC0
0000007FFFFFFFC0
000000FFFFFFFFC0
000001FFFFFFFFC0
000003FFFFFFFFC0
000007FFFFFFFFC0
00000FFFFFFFFFC0
00001FFFFFFFFFC0
00003FFFFFFFFFC0
00007FFFFFFFFFC0
0000FFFFFFFFFFC0
0001FFFFFEFFFFC0
0003FFFFFCFFFFC0
0007FFFFF87FFFC0
000FFFFFF07FFFC0
001FFFFFE07FFFC0
003FFFFFC03FFFC0
007FFFFF803FFFC0
00FFFFFF003FFFC0
01FFFFFE001FFFC0
03FFFFFC001FFFC0
07FFFFF8001FFFC0
0FFFFFF0000FFFC0
1FFFFFE0000FFFC0
3FFFFFC0000FFFC0
7FFFFF800007FFC0
FFFFFF000007FFC0
FFFFFE000007FFC0
FFFFFC000003FFC0
FFFFF8000003FF80
FFFFF0000001FF80
FFFFE0000000FF00
7FFFC00000007C00
3FFF800000000000
1FFF000000000000
0FFE000000000000
07FC000000000000
03F8000000000000
01F0000000000000
ENDCHAR
STARTCHAR 006B
ENCODING 107
SWIDTH 981 0
DWIDTH 60 0
BBX 59 51 0 -6
BITMAP
0000000040000000
0000000040000000
0000000060000000
0000000070000000
0000000078000000
000000007C000000
000000007E000000
000000007F000000
000000007F800000
000000007FC00000
000000007FE00000
000000007FF00000
000000007FF80000
00000FFFFFFC0000
0000FFFFFFFE0000
0003FFFFFFFF0000
000FFFFFFFFF8000
003FFFFFFFFFC000
007FFFFFFFFFE000
00FFFFFFFFFFF000
01FFFFFFFFFFF800
03FFFFFFFFFFFC00
07FFFFFFFFFFFE00
07FFFFFFFFFFFF00
0FFFFFFFFFFFFF80
0FFFFFFFFFFFFFC0
1FFFFFFFFFFFFFE0
1FFFFFFFFFFFFF80
3FFFF803FFFFFE00
3FFF8003FFFFFC00
3FFE0003FFFFF000
7FFC0007FFFFC000
7FF00007FFFF0000
7FE00007FFFE0000
7FC00007FFF80000
7F800007FFE00000
7F000007FF800000
7E00000FFF000000
7E00000FFC000000
FC00000FF0000000
F800000FC0000000
F800000F80000000
F000000E00000000
F000001800000000
6000001000000000
6000000000000000
6000000000000000
4000000000000000
4000000000000000
4000000000000000
4000000000000000
ENDCHAR
STARTCHAR 006C
ENCODING 108
SWIDTH 1080 0
DWIDTH 66 0
BBX 65 56 0 -9
BITMAP
000000080000000000
000000180000000000
000000380000000000
000000780000000000
000000F80000000000
000001F80000000000
000003F80000000000
000007F80000000000
00000FF80000000000
00001FF80000000000
00003FF80000000000
00007FF80000000000
0000FFF80000000000
0001FFFFFC00000000
0003FFFFFFF0000000
0007FFFFFFFF000000
000FFFFFFFFFC00000
001FFFFFFFFFF00000
003FFFFFFFFFFC0000
007FFFFFFFFFFE0000
00FFFFFFFFFFFF8000
01FFFFFFFFFFFFC000
03FFFFFFFFFFFFC000
07FFFFFFFFFFFFE000
0FFFFFFFFFFFFFF000
1FFFFFFFFFFFFFF800
3FFFFFFFFFFFFFF800
7FFFFFFFFFFFFFFC00
FFFFFFFFFFFFFFFC00
3FFFFFFFFFFFFFFE00
0FFFFFFFE07FFFFE00
03FFFFFF8007FFFE00
00FFFFFF8000FFFF00
007FFFFF80003FFF00
001FFFFF80001FFF00
0007FFFF800007FF00
0003FFFFC00003FF00
0000FFFFC00001FF80
00003FFFC00000FF80
00000FFFC000007F80
000007FFC000007F80
000001FFC000003F80
0000007FE000001F80
0000001FE000001F80
0000000FE000000F80
00000003E000000F80
00000000E000000780
000000006000000780
000000001000000380
000000000000000380
000000000000000180
000000000000000180
000000000000000180
000000000000000080
000000000000000080
000000000000000080
ENDCHAR
STARTCHAR 006D
ENCODING 109
SWIDTH 981 0
DWIDTH 60 0
BBX 52 63 4 -12
BITMAP
0001FFFFF00000
0001FFFFF00000
0001FFFFF00000
0001FFFFF00000
0001FFFFF00000
0001FFFFF00000
0001FFFFF00000
0001FFFFF00000
0001FFFFF00000
0001FFFFF00000
0001FFFFF00000
0001FFFFF00000
0001FFFFF00000
0001FFFFF00000
0001FFFFF00000
0001FFFFF00000
0001FFFFF00000
0001FFFFF00000
0001FFFFF00000
0001FFFFF00000
0001FFFFF00000
0001FFFFF00000
0001FFFFF00000
0001FFFFF00000
0001FFFFF00000
0001FFFFF00000
0001FFFFF00000
0001FFFFF00000
0001FFFFF00000
0001FFFFF00000
0001FFFFF00000
0001FFFFF00000
0001FFFFF00000
0001FFFFF00000
0001FFFFF00000
FFFFFFFFFFFFF0
7FFFFFFFFFFFC0
3FFFFFFFFFFF80
1FFFFFFFFFFF00
0FFFFFFFFFFF00
07FFFFFFFFFE00
03FFFFFFFFFC00
01FFFFFFFFF800
00FFFFFFFFF000
007FFFFFFFE000
003FFFFFFFC000
001FFFFFFF8000
001FFFFFFF0000
000FFFFFFE0000
0007FFFFFC0000
0003FFFFF80000
0001FFFFF00000
0000FFFFF00000
00007FFFE00000
00003FFFC00000
00001FFF800000
00000FFF000000
000007FE000000
000003FC000000
000001F8000000
000001F0000000
000000E0000000
00000040000000
ENDCHAR
STARTCHAR 006E
ENCODING 110
SWIDTH 981 0
DWIDTH 60 0
BBX 59 49 0 -5
BITMAP
0000002000000000
0000006000000000
000000E000000000
000001E000000000
000003E000000000
000007E000000000
00000FE000000000
00001FE000000000
00003FE000000000
00007FE000000000
0000FFE000000000
0001FFE000000000
0007FFE000000000
000FFFE000000000
001FFFFFFFFFFFE0
003FFFFFFFFFFFE0
007FFFFFFFFFFFE0
00FFFFFFFFFFFFE0
01FFFFFFFFFFFFE0
03FFFFFFFFFFFFE0
07FFFFFFFFFFFFE0
0FFFFFFFFFFFFFE0
1FFFFFFFFFFFFFE0
3FFFFFFFFFFFFFE0
FFFFFFFFFFFFFFE0
7FFFFFFFFFFFFFE0
1FFFFFFFFFFFFFE0
0FFFFFFFFFFFFFE0
07FFFFFFFFFFFFE0
03FFFFFFFFFFFFE0
01FFFFFFFFFFFFE0
00FFFFFFFFFFFFE0
007FFFFFFFFFFFE0
003FFFFFFFFFFFE0
001FFFE000000000
000FFFE000000000
0007FFE000000000
0003FFE000000000
0000FFE000000000
00007FE000000000
00003FE000000000
00001FE000000000
00000FE000000000
000007E000000000
000003E000000000
000001E000000000
000000E000000000
0000006000000000
0000002000000000
ENDCHAR
STARTCHAR 006F
ENCODING 111
SWIDTH 981 0
DWIDTH 60 0
BBX 58 49 1 -5
BITMAP
0000000100000000
0000000080000000
00000000C0000000
00000000E0000000
00000000F0000000
00000000F8000000
00000000FC000000
00000000FF000000
00000000FF800000
00000000FFC00000
00000000FFE00000
00000000FFF00000
00000000FFF80000
00000000FFFC0000
FFFFFFFFFFFE0000
FFFFFFFFFFFF0000
FFFFFFFFFFFF8000
FFFFFFFFFFFFC000
FFFFFFFFFFFFE000
FFFFFFFFFFFFF800
FFFFFFFFFFFFFC00
FFFFFFFFFFFFFE00
FFFFFFFFFFFFFF00
FFFFFFFFFFFFFF80
FFFFFFFFFFFFFFC0
FFFFFFFFFFFFFF80
FFFFFFFFFFFFFF00
FFFFFFFFFFFFFE00
FFFFFFFFFFFFFC00
FFFFFFFFFFFFF800
FFFFFFFFFFFFF000
FFFFFFFFFFFFC000
FFFFFFFFFFFF8000
FFFFFFFFFFFF0000
00000000FFFE0000
00000000FFFC0000
00000000FFF80000
00000000FFF00000
00000000FFE00000
00000000FFC00000
00000000FF800000
00000000FF000000
00000000FE000000
00000000F8000000
00000000F0000000
00000000E0000000
00000000C0000000
0000000080000000
0000000100000000
ENDCHAR
STARTCHAR 0070
ENCODING 112
SWIDTH 981 0
DWIDTH 60 0
BBX 52 63 4 -12
BITMAP
00000040000000
00000060000000
000000F0000000
000001F8000000
000003FC000000
000007FC000000
00000FFE000000
00001FFF000000
00003FFF800000
00003FFFC00000
00007FFFE00000
0000FFFFF00000
0001FFFFF80000
0003FFFFFC0000
0007FFFFFE0000
000FFFFFFF0000
001FFFFFFF8000
003FFFFFFFC000
007FFFFFFFC000
00FFFFFFFFE000
01FFFFFFFFF000
03FFFFFFFFF800
03FFFFFFFFFC00
07FFFFFFFFFE00
0FFFFFFFFFFF00
1FFFFFFFFFFF80
3FFFFFFFFFFFC0
7FFFFFFFFFFFE0
FFFFFFFFFFFFF0
0001FFFFF00000
0001FFFFF00000
0001FFFFF00000
0001FFFFF00000
0001FFFFF00000
0001FFFFF00000
0001FFFFF00000
0001FFFFF00000
0001FFFFF00000
0001FFFFF00000
0001FFFFF00000
0001FFFFF00000
0001FFFFF00000
0001FFFFF00000
0001FFFFF00000
0001FFFFF00000
0001FFFFF00000
0001FFFFF00000
0001FFFFF00000
0001FFFFF00000
0001FFFFF00000
0001FFFFF00000
0001FFFFF00000
0001FFFFF00000
0001FFFFF00000
0001FFFFF00000
0001FFFFF00000
0001FFFFF00000
0001FFFFF00000
0001FFFFF00000
0001FFFFF00000
0001FFFFF00000
0001FFFFF00000
0001FFFFF00000
ENDCHAR
STARTCHAR 0071
ENCODING 113
SWIDTH 981 0
DWIDTH 60 0
BBX 54 63 3 -12
BITMAP
00000000080000
00000000080000
000000000C0000
000000001C0000
000000003E0000
000000003F0000
000000007F0000
000000007F8000
00000000FF8000
00000000FFC000
00000001FFE000
00000003FFE000
00000003FFF000
00000007FFF000
00000007FFF800
0000000FFFF800
0000001FFFFC00
FFC0001FFFFE00
FFC0003FFFFE00
FFC0003FFFFF00
FFC0007FFFFF00
FFC0007FFFFF80
FFC000FFFFFF80
FFC001FFFFFFC0
FFC001FFFFFFE0
FFC003FFFFFFE0
FFC003FFFFFFF0
FFC007FFFFFFF0
FFC007FFFFFFF8
FFC00FFFFFFFFC
FFC00000FFC000
FFC00000FFC000
FFC00000FFC000
FFC00000FFC000
FFC00000FFC000
FFC00000FFC000
FFC00000FFC000
FFC00000FFC000
FFC00000FFC000
FFC00000FFC000
FFC00000FFC000
FFC00000FFC000
FFC00000FF8000
FFC00001FF8000
FFC00001FF8000
FFE00001FF8000
7FE00001FF8000
7FE00003FF8000
7FF00003FF0000
7FF80007FF0000
3FFC000FFF0000
3FFE003FFE0000
1FFFC0FFFE0000
1FFFFFFFFC0000
0FFFFFFFF80000
07FFFFFFF80000
03FFFFFFF00000
01FFFFFFE00000
00FFFFFFC00000
007FFFFF000000
001FFFFE000000
0007FFF0000000
00007F80000000
ENDCHAR
STARTCHAR 0072
ENCODING 114
SWIDTH 981 0
DWIDTH 60 0
BBX 59 50 0 -6
BITMAP
0000003000000000
000000F000000000
000001F000000000
000007F000000000
00001FF000000000
00003FF000000000
0000FFF000000000
0003FFF000000000
000FFFF000000000
001FFFF000000000
007FFFF000000000
01FFFFFFFFF00000
07FFFFFFFFFE0000
0FFFFFFFFFFF8000
3FFFFFFFFFFFE000
FFFFFFFFFFFFF000
3FFFFFFFFFFFF800
0FFFFFFFFFFFFC00
03FFFFFFFFFFFE00
00FFFFFFFFFFFF00
007FFFF0003FFF00
001FFFF00007FF80
0007FFF00003FF80
0003FFF00001FFC0
0000FFF00000FFC0
00003FF000007FC0
00000FF000007FE0
000007F000007FE0
000001F000003FE0
0000007000003FE0
0000001000003FE0
0000000000003FE0
0000000000003FE0
0000000000007FE0
0000000000007FE0
000000000000FFC0
000000000000FFC0
000000000001FFC0
000000000003FF80
00000000000FFF80
0000FFFFFFFFFF00
0000FFFFFFFFFE00
0000FFFFFFFFFE00
0000FFFFFFFFFC00
0000FFFFFFFFF800
0000FFFFFFFFF000
0000FFFFFFFFC000
0000FFFFFFFF8000
0000FFFFFFFC0000
0000FFFFFFC00000
ENDCHAR
STARTCHAR 0073
ENCODING 115
SWIDTH 981 0
DWIDTH 60 0
BBX 59 46 0 -4
BITMAP
000001FFF8000000
00003FFFFF800000
0001FFFFFFF00000
0007FFFFFFFC0000
001FFFFFFFFF0000
007FFFFFFFFFC000
00FFFFFFFFFFF000
01FFFFFFFFFFF800
07FFFFFFFFFFFC00
07FFFFFFFFFFFE00
0FFFFFFFFFFFFF00
1FFFFFFFFFFFFF00
3FFFFFFFFFFFFF80
3FFFFFFFFFFFFFC0
7FFFFFFFFFFFFFC0
7FFFFFFFFFFFFFC0
7FFFFFFFFFFFFFE0
7FFFFFFFFFFFFFE0
FFFFFFFFFFFFFFE0
FFFFFFFFFFFFFFE0
FFFFFFFFFFFFFFE0
7FFFFFFFFFFFFFE0
7FFFFFFFFFFFFFE0
7FFFFFFFFFFFFFC0
7FFFFFFFFFFFFFC0
3FFFFFFFFFFFFFC0
3FFFFFFFFFFFFF80
1FFFFFFFFFFFFF00
1FFFFFFFFFFFFF00
0FFFFFFFFFFFFE00
07FFFFFFFFFFFC00
03FFFFFFFFFFF800
01FFFFFFFFFFE000
007FFFFFFFFFC000
003FFFFFFFFF0000
000FFFFFFFFC0000
0003FFFFFFF00000
00007FFFFF800000
000007FFF0000000
000007F800000000
000007F000000000
000007E000000000
00000FC000000000
00001F8000000000
00003C0000000000
0000C00000000000
ENDCHAR
STARTCHAR 0074
ENCODING 116
SWIDTH 981 0
DWIDTH 60 0
BBX 59 49 0 -5
BITMAP
3FFFFFFFFFFFFF80
7FFFFFFFFFFFFFC0
7FFFFFFFFFFFFFE0
FFFFFFFFFFFFFFE0
FFFFFFFFFFFFFFE0
FFFFFFFFFFFFFFE0
FFFFFFFFFFFFFFE0
FFFFFFFFFFFFFFE0
FFFFFFFFFFFFFFE0
FFFFFFFFFFFFFFE0
FFFFFFFFFFFFFFE0
FFFFFFFFFFFFFFE0
FFFFFFFFFFFFFFE0
FFFFFFFFFFFFFFE0
FFFFFFFFFFFFFFE0
FFFFFFFFFFFFFFE0
FFFFFFFFFFFFFFE0
FFFFFFFFFFFFFFE0
FFFFFFFFFFFFFFE0
FFFFFFFFFFFFFFE0
FFFFFFFFFFFFFFE0
FFFFFFFFFFFFFFE0
FFFFFFFFFFFFFFE0
FFFFFFFFFFFFFFE0
FFFFFFFFFFFFFFE0
FFFFFFFFFFFFFFE0
FFFFFFFFFFFFFFE0
FFFFFFFFFFFFFFE0
FFFFFFFFFFFFFFE0
FFFFFFFFFFFFFFE0
FFFFFFFFFFFFFFE0
FFFFFFFFFFFFFFE0
FFFFFFFFFFFFFFE0
FFFFFFFFFFFFFFE0
FFFFFFFFFFFFFFE0
7FFFFFFFFFFFFFE0
7FFFFFFFFFFFFFC0
3FFFFFFFFFFFFF80
0000007F80000000
0000007F00000000
000000FE00000000
000000FC00000000
000001F000000000
000001E000000000
000003C000000000
0000038000000000
0000070000000000
0000040000000000
0000080000000000
ENDCHAR
STARTCHAR 0075
ENCODING 117
SWIDTH 981 0
DWIDTH 60 0
BBX 59 46 0 -4
BITMAP
000007FFFC000000
00007FFFFFC00000
0003FFFFFFF80000
000FFFFFFFFE0000
003FFFFFFFFF8000
007FFFFFFFFFE000
01FFFFFFFFFFF000
03FFFFFFFFFFF800
07FFFFFFFFFFFC00
0FFFFFFFFFFFFE00
1FFFFFFFFFFFFF00
1FFFFFFFFFFFFF80
3FFFFFFFFFFFFF80
7FFFFFFFFFFFFFC0
7FFFFFFFFFFFFFC0
7FFFFFFFFFFFFFE0
FFFFFFFFFFFFFFE0
FFFFFFFFFFFFFFE0
FFFFFFFFFFFFFFE0
FFFFFFFFFFFFFFE0
FFFFFFFFFFFFFFE0
FFFFFFFFFFFFFFE0
7FFFFFFFFFFFFFE0
7FFFFFFFFFFFFFC0
7FFFFFFFFFFFFFC0
3FFFFFFFFFFFFFC0
3FFFFFFFFFFFFF80
1FFFFFFFFFFFFF00
0FFFFFFFFFFFFF00
07FFFFFFFFFFFE00
03FFFFFFFFFFFC00
01FFFFFFFFFFF800
00FFFFFFFFFFF000
003FFFFFFFFFC000
001FFFFFFFFF8000
0007FFFFFFFE0000
0000FFFFFFF80000
00001FFFFFC00000
000000FFFC000000
00000003FC000000
00000001FE000000
00000000FE000000
000000007F000000
000000001F800000
0000000003C00000
0000000000300000
ENDCHAR
STARTCHAR 0076
ENCODING 118
SWIDTH 981 0
DWIDTH 60 0
BBX 59 50 0 -6
BITMAP
3FFFFFFFFFFFFF80
7FFFFFFFFFFFFFC0
7FFFFFFFFFFFFFE0
FFFFFFFFFFFFFFE0
FFFFFFFFFFFFFFE0
FFFFFFFFFFFFFFE0
FFFFFFFFFFFFFFE0
FFFFFFFFFFFFFFE0
FFFFFFFFFFFFFFE0
FFFFFFFFFFFFFFE0
FFFFFFFFFFFFFFE0
FFFFFFFFFFFFFFE0
FFFFFFFFFFFFFFE0
FFFFFFFFFFFFFFE0
FFFFFFFFFFFFFFE0
FFFFFFFFFFFFFFE0
FFFFFFFFFFFFFFE0
FFFFFFFFFFFFFFE0
FFFFFFFFFFFFFFE0
FFFFFFFFFFFFFFE0
FFFFFFFFFFFFFFE0
FFFFFFFFFFFFFFE0
FFFFFFFFFFFFFFE0
FFFFFFFFFFFFFFE0
FFFFFFFFFFFFFFE0
FFFFFFFFFFFFFFE0
FFFFFFFFFFFFFFE0
FFFFFFFFFFFFFFE0
FFFFFFFFFFFFFFE0
FFFFFFFFFFFFFFE0
FFFFFFFFFFFFFFE0
FFFFFFFFFFFFFFE0
FFFFFFFFFFFFFFE0
FFFFFFFFFFFFFFE0
FFFFFFFFFFFFFFE0
7FFFFFFFFFFFFFE0
7FFFFFFFFFFFFFC0
3FFFFFFFFFFFFF80
0000003FC0000000
0000001FE0000000
00000007E0000000
00000003F0000000
00000001F0000000
00000000F8000000
0000000078000000
0000000018000000
000000000C000000
0000000004000000
0000000002000000
0000000001000000
ENDCHAR
STARTCHAR 0077
ENCODING 119
SWIDTH 981 0
DWIDTH 60 0
BBX 59 59 0 -10
BITMAP
0000000600000000
0000003F80000000
0000007FC0000000
0000007FE0000000
000000FFE0000000
000000FFE0000000
000000FFE0000000
000C00FFE0070000
003F80FFE01FC000
007FC7FFF83FE000
00FFFFFFFE7FF000
00FFFFFFFFFFF000
01FFFFFFFFFFF000
01FFFFFFFFFFF000
00FFFFFFFFFFF000
00FFFFFFFFFFF000
00FFFFFFFFFFE000
007FFFFFFFFFC000
003FFFFFFFFF8000
003FFFFFFFFF0000
007FFFF0FFFF0000
007FFF803FFF0000
007FFF000FFF0000
00FFFE0007FF8000
0FFFFC0003FFFF00
3FFFF80003FFFF80
7FFFF80001FFFFC0
7FFFF80001FFFFE0
7FFFF00001FFFFE0
FFFFF00001FFFFE0
FFFFF00001FFFFE0
7FFFF00001FFFFE0
7FFFF80001FFFFC0
3FFFF80003FFFFC0
1FFFFC0003FFFF00
007FFC0007FF0000
007FFE000FFF0000
003FFF001FFE0000
003FFFC07FFE0000
001FFFFFFFFF0000
001FFFFFFFFF8000
003FFFFFFFFFC000
007FFFFFFFFFE000
00FFFFFFFFFFE000
00FFFFFFFFFFF000
01FFFFFFFFFFF000
01FFFFFFFFFFF000
01FFFFFFF9FFF000
00FFE3FFE0FFF000
00FFC0FFE07FE000
007F80FFE03FC000
003F00FFE00F8000
000000FFE0000000
000000FFE0000000
000000FFE0000000
000000FFE0000000
0000007FC0000000
0000003FC0000000
0000001F00000000
ENDCHAR
STARTCHAR 0078
ENCODING 120
SWIDTH 981 0
DWIDTH 60 0
BBX 59 49 0 -5
BITMAP
0007000000000000
0387800000000000
07CF800000000000
07DF800000000000
07FF880000000000
03FFFE0000000000
03FFFE0000000000
7FFFFE0000000000
7FC3FC0000000000
FF81F80010000000
7F80F800FC000000
3F00FC00FC038000
0F00FE01FE0FC000
0F80FF01FE0FE000
1F81FF01FF1FE000
3FE7FF01FFFFE000
7FFFF401FFFFE000
3FFFE1E7FFFFE000
39FFE3FFFFFFC000
00FFE7FFFFFF8000
01F1F7FFFFFFC000
01F1E7FFFFFFE780
00F047FFFFFFFFC0
004003FFF03FFFE0
000001FFE00FFFE0
000000FFC007FFE0
000000FF8007FFE0
000000FF8003FFC0
000000FF8003FF80
000001FF8003FC00
000007FF8003F800
00000FFF8007F000
00000FFFC007F800
00001FFFC00FFE00
00000FFFE01FFF00
00000FFFF87FFF80
000007FFFFFFFF80
0000001FFFFFFF80
0000000FFFFFFF80
00000007FFFF7F80
0000000FFFFE1F00
0000000FFFFE0000
0000001FFFFE0000
0000001FF1FE0000
0000001FE1FE0000
0000000FC1FE0000
00000007C0FE0000
0000000000FE0000
0000000000380000
ENDCHAR
STARTCHAR 0079
ENCODING 121
SWIDTH 981 0
DWIDTH 60 0
BBX 59 52 0 -6
BITMAP
00001FF800000000
00007FFE0007C000
0001FFFF801FF800
0003FFFFE07FFE00
0007FFFFF07FFF80
000FFFC008FFF000
001FFF0000FF8000
003FFE0001FF0000
007FFE0001FF8060
007FFE0001FFCFC0
00FFFF0001FFFFC0
00FFFF8003FFFF80
01FFFFC003FFFF00
07FFFFE003FFFE00
3FFDFFF007FFFC00
7FF03FF80FFFF800
FFF01FFC0FFFE000
7FF007FE1FFFC000
7FE003FF3FFFC000
3FE001FFFFFFC000
1FE000FFFFFDE000
07E0007FFFE00000
03C0001FFFC00000
0000000FFF000000
0000001FFE000000
0000003FFE000000
0000007FFF000000
000000FFFF800000
000001FFFFC00000
000007FFFFE00000
00000FFFBFF00000
00001FFF3FF80000
00003FFE1FFC0000
0000FFFC0FFE0000
0001FFF807FF0000
0003FFF003FF8000
0007FFE001FFC000
001FFF8000FFF000
003FFF00007FF800
007FFE00007FFC00
00FFFC00003FFE00
01FFF800001FFF00
03FFF000000FFF80
07FFE0000007FFC0
0FFFC0000003FFE0
0FFF80000001FFC0
0FFF00000000FF80
07FE000000007F00
07FC000000007E00
03F8000000003C00
00E0000000001800
0000000000000800
ENDCHAR
STARTCHAR 007A
ENCODING 122
SWIDTH 981 0
DWIDTH 60 0
BBX 59 59 0 -10
BITMAP
0000000008000000
0000000010000000
0000000030000000
0000000070000000
00000000F0000000
00000001E0000000
00000003E0000000
00000007E0000000
0000000FE0000000
0000000FE0000000
0000001FC0000000
0000001FC0000000
0000001FC0000000
0000001FC0000000
0000003F80000000
0000003F80000000
0000003F80000000
0000003F80000000
0000007F80000000
0000007F00000000
0000007F00000000
0000007F00000000
0000007F00000000
000000FE000000E0
000000FE00001F80
000000FE0001FF00
00FF80FE003FFE00
03FFE1FE07FFFC00
0FFFF1FC7FFFF800
1FFFF9FFFFFFF000
3FFFF9FFFFFFE000
3FC7FBFFFFFFC000
7F01FFFFFFFE0000
7E01FFFFFFC00000
FE01FFFFFC000000
FE03FFFFC0000000
FF0FFFF800000000
7FFFF7F000000000
7FFFF3F800000000
3FFFE7FE00000000
3FFFCFFF00000000
0FFF1FFF00000000
07FC3FFF80000000
00007FFF80000000
00007F9F80000000
00007F0F80000000
0000FE0F80000000
0000FC0F80000000
0000FC0F80000000
0000FC0F80000000
0000FC1F80000000
0000FE3F80000000
0000FFFF00000000
00007FFF00000000
00007FFE00000000
00003FFC00000000
00003FF800000000
00000FF000000000
000003C000000000
ENDCHAR
STARTCHAR 007B
ENCODING 123
SWIDTH 981 0
DWIDTH 60 0
BBX 59 55 0 -8
BITMAP
0000000001FFC000
0000000000FF0000
0000000000FE0000
0000000000FF8000
00000000007FC000
00000000007FE000
00000000007FF000
000000000027F800
000000000023F800
000000000021FC00
000000000000FE00
0000000000007E00
0000000000003F00
0000000000003F00
0000000000001F80
0000000000001F80
0000000000000F80
0000000000000FC0
00000000000007C0
00000000000007C0
00000000000007E0
00000000000003E0
00000000000003E0
00000000000003E0
00000000000003E0
00000000000003E0
FC000000000003E0
FC000000000003E0
7C000000000003E0
7C000000000003E0
7C000000000007E0
7C000000000007C0
7C000000000007C0
7E000000000007C0
3E00000000000FC0
3F00000000000F80
3F00000000001F80
1F80000000001F80
1F80000000003F00
0FC0000000003F00
0FE0000000007E00
07E000000000FE00
03F000000001FC00
03F800000003F800
01FC00000007F800
00FF0000000FF000
007F8000003FE000
003FE00000FFC000
001FFC0003FF0000
000FFF803FFE0000
0003FFFFFFFC0000
0001FFFFFFF00000
00007FFFFFC00000
00000FFFFF000000
000001FFF0000000
ENDCHAR
STARTCHAR 007C
ENCODING 124
SWIDTH 981 0
DWIDTH 60 0
BBX 59 55 0 -8
BITMAP
007FF00000000000
000FF00000000000
000FF00000000000
001FE00000000000
003FE00000000000
007FE00000000000
00FFC00000000000
01FCC00000000000
03F8C00000000000
03F0800000000000
07E0000000000000
0FE0000000000000
0FC0000000000000
1F80000000000000
1F80000000000000
3F00000000000000
3F00000000000000
3E00000000000000
7E00000000000000
7C00000000000000
7C00000000000000
7C00000000000000
7C00000000000000
FC00000000000000
FC00000000000000
FC00000000000000
FC000000000003E0
FC000000000003E0
7C000000000003E0
7C000000000003E0
7C000000000003E0
7C000000000007E0
7C000000000007C0
7E000000000007C0
3E00000000000FC0
3F00000000000F80
3F00000000001F80
1F00000000001F80
1F80000000003F00
0FC0000000003F00
0FC0000000007E00
07E000000000FE00
07F000000001FC00
03F800000003F800
01FC00000007F800
00FF0000000FF000
007F8000001FE000
003FE000007FC000
001FF80003FF8000
000FFF001FFF0000
0007FFFFFFFC0000
0001FFFFFFF80000
00007FFFFFE00000
00001FFFFF000000
000001FFF8000000
ENDCHAR
STARTCHAR 007D
ENCODING 125
SWIDTH 490 0
DWIDTH 30 0
BBX 0 0 0 0
BITMAP
ENDCHAR
STARTCHAR 007E
ENCODING 126
SWIDTH 490 0
DWIDTH 30 0
BBX 0 0 0 0
BITMAP
ENDCHAR
STARTCHAR 00A0
ENCODING 160
SWIDTH 245 0
DWIDTH 15 0
BBX 0 0 0 0
BITMAP
ENDCHAR
STARTCHAR 00A1
ENCODING 161
SWIDTH 327 0
DWIDTH 20 0
BBX 0 0 0 0
BITMAP
ENDCHAR
STARTCHAR 00A2
ENCODING 162
SWIDTH 556 0
DWIDTH 34 0
BBX 0 0 0 0
BITMAP
ENDCHAR
STARTCHAR 00A3
ENCODING 163
SWIDTH 490 0
DWIDTH 30 0
BBX 0 0 0 0
BITMAP
ENDCHAR
STARTCHAR 00A4
ENCODING 164
SWIDTH 490 0
DWIDTH 30 0
BBX 0 0 0 0
BITMAP
ENDCHAR
STARTCHAR 00A5
ENCODING 165
SWIDTH 621 0
DWIDTH 38 0
BBX 0 0 0 0
BITMAP
ENDCHAR
STARTCHAR 00A6
ENCODING 166
SWIDTH 490 0
DWIDTH 30 0
BBX 0 0 0 0
BITMAP
ENDCHAR
STARTCHAR 00A7
ENCODING 167
SWIDTH 490 0
DWIDTH 30 0
BBX 0 0 0 0
BITMAP
ENDCHAR
STARTCHAR 00A8
ENCODING 168
SWIDTH 507 0
DWIDTH 31 0
BBX 0 0 0 0
BITMAP
ENDCHAR
STARTCHAR 00A9
ENCODING 169
SWIDTH 818 0
DWIDTH 50 0
BBX 0 0 0 0
BITMAP
ENDCHAR
STARTCHAR 00AA
ENCODING 170
SWIDTH 310 0
DWIDTH 19 0
BBX 0 0 0 0
BITMAP
ENDCHAR
STARTCHAR 00AB
ENCODING 171
SWIDTH 458 0
DWIDTH 28 0
BBX 0 0 0 0
BITMAP
ENDCHAR
STARTCHAR 00AC
ENCODING 172
SWIDTH 490 0
DWIDTH 30 0
BBX 0 0 0 0
BITMAP
ENDCHAR
STARTCHAR 00AD
ENCODING 173
SWIDTH 981 0
DWIDTH 60 0
BBX 59 59 0 -10
BITMAP
0000003F80000000
000007FFFC000000
00001FFFFF800000
0000FFFFFFE00000
0001FF801FF80000
0007F80003FE0000
000FE000007F0000
003F8000001F8000
007E0000000FC000
00FC00000003E000
01F800000001F000
01FC00000100F800
03FE000003807C00
07CF000007803C00
078780000F803E00
0F03C0001F801F00
1F01E0001F800F00
1E00F0003F800F80
1E0078007F800780
3C003C00FF800780
3C001E01FF8003C0
38000003FF8003C0
78001FFFFF8003C0
78001FFFFF8001C0
78001FFFFF8001E0
70001FFFFF8001E0
70001FFFFF8001E0
70001FFFFF8001E0
F0001FFFFF8001E0
F0001FFFFF8001E0
F0001FFFFF8001E0
F0001FFFFF8001E0
70001FFFFF8001E0
70001FFFFF8001E0
78001FFFFF8001E0
78001FFFFF8001C0
78001FFFFF8003C0
38000003FF8003C0
3C000001FF8003C0
3C000000FF800780
1E0000007F800780
1E0000007F900F80
1F0000003F980F00
0F0000001F9C1F00
0F8000000F9E3E00
07C00000078F3C00
03E000000387FC00
01F000000103F800
01F800000001F000
00FC00000003E000
007E0000000FC000
003F8000001F8000
001FC000007F0000
0007F80001FE0000
0003FF001FF80000
0000FFFFFFF00000
00003FFFFF800000
000007FFFE000000
0000007FE0000000
ENDCHAR
STARTCHAR 00AE
ENCODING 174
SWIDTH 818 0
DWIDTH 50 0
BBX 0 0 0 0
BITMAP
ENDCHAR
STARTCHAR 00AF
ENCODING 175
SWIDTH 327 0
DWIDTH 20 0
BBX 0 0 0 0
BITMAP
ENDCHAR
STARTCHAR 00B0
ENCODING 176
SWIDTH 327 0
DWIDTH 20 0
BBX 0 0 0 0
BITMAP
ENDCHAR
STARTCHAR 00B1
ENCODING 177
SWIDTH 490 0
DWIDTH 30 0
BBX 0 0 0 0
BITMAP
ENDCHAR
STARTCHAR 00B2
ENCODING 178
SWIDTH 490 0
DWIDTH 30 0
BBX 0 0 0 0
BITMAP
ENDCHAR
STARTCHAR 00B3
ENCODING 179
SWIDTH 490 0
DWIDTH 30 0
BBX 0 0 0 0
BITMAP
ENDCHAR
STARTCHAR 00B4
ENCODING 180
SWIDTH 507 0
DWIDTH 31 0
BBX 0 0 0 0
BITMAP
ENDCHAR
STARTCHAR 00B5
ENCODING 181
SWIDTH 572 0
DWIDTH 35 0
BBX 0 0 0 0
BITMAP
ENDCHAR
STARTCHAR 00B6
ENCODING 182
SWIDTH 507 0
DWIDTH 31 0
BBX 0 0 0 0
BITMAP
ENDCHAR
STARTCHAR 00B7
ENCODING 183
SWIDTH 245 0
DWIDTH 15 0
BBX 0 0 0 0
BITMAP
ENDCHAR
STARTCHAR 00B8
ENCODING 184
SWIDTH 507 0
DWIDTH 31 0
BBX 0 0 0 0
BITMAP
ENDCHAR
STARTCHAR 00B9
ENCODING 185
SWIDTH 490 0
DWIDTH 30 0
BBX 0 0 0 0
BITMAP
ENDCHAR
STARTCHAR 00BA
ENCODING 186
SWIDTH 343 0
DWIDTH 21 0
BBX 0 0 0 0
BITMAP
ENDCHAR
STARTCHAR 00BB
ENCODING 187
SWIDTH 458 0
DWIDTH 28 0
BBX 0 0 0 0
BITMAP
ENDCHAR
STARTCHAR 00BC
ENCODING 188
SWIDTH 834 0
DWIDTH 51 0
BBX 0 0 0 0
BITMAP
ENDCHAR
STARTCHAR 00BD
ENCODING 189
SWIDTH 965 0
DWIDTH 59 0
BBX 0 0 0 0
BITMAP
ENDCHAR
STARTCHAR 00BE
ENCODING 190
SWIDTH 834 0
DWIDTH 51 0
BBX 0 0 0 0
BITMAP
ENDCHAR
STARTCHAR 00BF
ENCODING 191
SWIDTH 360 0
DWIDTH 22 0
BBX 0 0 0 0
BITMAP
ENDCHAR
STARTCHAR 00C0
ENCODING 192
SWIDTH 752 0
DWIDTH 46 0
BBX 0 0 0 0
BITMAP
ENDCHAR
STARTCHAR 00C1
ENCODING 193
SWIDTH 752 0
DWIDTH 46 0
BBX 0 0 0 0
BITMAP
ENDCHAR
STARTCHAR 00C2
ENCODING 194
SWIDTH 752 0
DWIDTH 46 0
BBX 0 0 0 0
BITMAP
ENDCHAR
STARTCHAR 00C3
ENCODING 195
SWIDTH 752 0
DWIDTH 46 0
BBX 0 0 0 0
BITMAP
ENDCHAR
STARTCHAR 00C4
ENCODING 196
SWIDTH 752 0
DWIDTH 46 0
BBX 0 0 0 0
BITMAP
ENDCHAR
STARTCHAR 00C5
ENCODING 197
SWIDTH 752 0
DWIDTH 46 0
BBX 0 0 0 0
BITMAP
ENDCHAR
STARTCHAR 00C6
ENCODING 198
SWIDTH 1030 0
DWIDTH 63 0
BBX 0 0 0 0
BITMAP
ENDCHAR
STARTCHAR 00C7
ENCODING 199
SWIDTH 687 0
DWIDTH 42 0
BBX 0 0 0 0
BITMAP
ENDCHAR
STARTCHAR 00C8
ENCODING 200
SWIDTH 556 0
DWIDTH 34 0
BBX 0 0 0 0
BITMAP
ENDCHAR
STARTCHAR 00C9
ENCODING 201
SWIDTH 556 0
DWIDTH 34 0
BBX 0 0 0 0
BITMAP
ENDCHAR
STARTCHAR 00CA
ENCODING 202
SWIDTH 556 0
DWIDTH 34 0
BBX 0 0 0 0
BITMAP
ENDCHAR
STARTCHAR 00CB
ENCODING 203
SWIDTH 556 0
DWIDTH 34 0
BBX 0 0 0 0
BITMAP
ENDCHAR
STARTCHAR 00CC
ENCODING 204
SWIDTH 327 0
DWIDTH 20 0
BBX 0 0 0 0
BITMAP
ENDCHAR
STARTCHAR 00CD
ENCODING 205
SWIDTH 327 0
DWIDTH 20 0
BBX 0 0 0 0
BITMAP
ENDCHAR
STARTCHAR 00CE
ENCODING 206
SWIDTH 327 0
DWIDTH 20 0
BBX 0 0 0 0
BITMAP
ENDCHAR
STARTCHAR 00CF
ENCODING 207
SWIDTH 327 0
DWIDTH 20 0
BBX 0 0 0 0
BITMAP
ENDCHAR
STARTCHAR 00D0
ENCODING 208
SWIDTH 736 0
DWIDTH 45 0
BBX 0 0 0 0
BITMAP
ENDCHAR
STARTCHAR 00D1
ENCODING 209
SWIDTH 752 0
DWIDTH 46 0
BBX 0 0 0 0
BITMAP
ENDCHAR
STARTCHAR 00D2
ENCODING 210
SWIDTH 785 0
DWIDTH 48 0
BBX 0 0 0 0
BITMAP
ENDCHAR
STARTCHAR 00D3
ENCODING 211
SWIDTH 785 0
DWIDTH 48 0
BBX 0 0 0 0
BITMAP
ENDCHAR
STARTCHAR 00D4
ENCODING 212
SWIDTH 785 0
DWIDTH 48 0
BBX 0 0 0 0
BITMAP
ENDCHAR
STARTCHAR 00D5
ENCODING 213
SWIDTH 785 0
DWIDTH 48 0
BBX 0 0 0 0
BITMAP
ENDCHAR
STARTCHAR 00D6
ENCODING 214
SWIDTH 785 0
DWIDTH 48 0
BBX 0 0 0 0
BITMAP
ENDCHAR
STARTCHAR 00D7
ENCODING 215
SWIDTH 490 0
DWIDTH 30 0
BBX 0 0 0 0
BITMAP
ENDCHAR
STARTCHAR 00D8
ENCODING 216
SWIDTH 785 0
DWIDTH 48 0
BBX 0 0 0 0
BITMAP
ENDCHAR
STARTCHAR 00D9
ENCODING 217
SWIDTH 736 0
DWIDTH 45 0
BBX 0 0 0 0
BITMAP
ENDCHAR
STARTCHAR 00DA
ENCODING 218
SWIDTH 736 0
DWIDTH 45 0
BBX 0 0 0 0
BITMAP
ENDCHAR
STARTCHAR 00DB
ENCODING 219
SWIDTH 736 0
DWIDTH 45 0
BBX 0 0 0 0
BITMAP
ENDCHAR
STARTCHAR 00DC
ENCODING 220
SWIDTH 736 0
DWIDTH 45 0
BBX 0 0 0 0
BITMAP
ENDCHAR
STARTCHAR 00DD
ENCODING 221
SWIDTH 605 0
DWIDTH 37 0
BBX 0 0 0 0
BITMAP
ENDCHAR
STARTCHAR 00DE
ENCODING 222
SWIDTH 540 0
DWIDTH 33 0
BBX 0 0 0 0
BITMAP
ENDCHAR
STARTCHAR 00DF
ENCODING 223
SWIDTH 605 0
DWIDTH 37 0
BBX 0 0 0 0
BITMAP
ENDCHAR
STARTCHAR 00E0
ENCODING 224
SWIDTH 441 0
DWIDTH 27 0
BBX 0 0 0 0
BITMAP
ENDCHAR
STARTCHAR 00E1
ENCODING 225
SWIDTH 441 0
DWIDTH 27 0
BBX 0 0 0 0
BITMAP
ENDCHAR
STARTCHAR 00E2
ENCODING 226
SWIDTH 441 0
DWIDTH 27 0
BBX 0 0 0 0
BITMAP
ENDCHAR
STARTCHAR 00E3
ENCODING 227
SWIDTH 441 0
DWIDTH 27 0
BBX 0 0 0 0
BITMAP
ENDCHAR
STARTCHAR 00E4
ENCODING 228
SWIDTH 441 0
DWIDTH 27 0
BBX 0 0 0 0
BITMAP
ENDCHAR
STARTCHAR 00E5
ENCODING 229
SWIDTH 441 0
DWIDTH 27 0
BBX 0 0 0 0
BITMAP
ENDCHAR
STARTCHAR 00E6
ENCODING 230
SWIDTH 703 0
DWIDTH 43 0
BBX 0 0 0 0
BITMAP
ENDCHAR
STARTCHAR 00E7
ENCODING 231
SWIDTH 441 0
DWIDTH 27 0
BBX 0 0 0 0
BITMAP
ENDCHAR
STARTCHAR 00E8
ENCODING 232
SWIDTH 441 0
DWIDTH 27 0
BBX 0 0 0 0
BITMAP
ENDCHAR
STARTCHAR 00E9
ENCODING 233
SWIDTH 441 0
DWIDTH 27 0
BBX 0 0 0 0
BITMAP
ENDCHAR
STARTCHAR 00EA
ENCODING 234
SWIDTH 441 0
DWIDTH 27 0
BBX 0 0 0 0
BITMAP
ENDCHAR
STARTCHAR 00EB
ENCODING 235
SWIDTH 441 0
DWIDTH 27 0
BBX 0 0 0 0
BITMAP
ENDCHAR
STARTCHAR 00EC
ENCODING 236
SWIDTH 245 0
DWIDTH 15 0
BBX 0 0 0 0
BITMAP
ENDCHAR
STARTCHAR 00ED
ENCODING 237
SWIDTH 245 0
DWIDTH 15 0
BBX 0 0 0 0
BITMAP
ENDCHAR
STARTCHAR 00EE
ENCODING 238
SWIDTH 245 0
DWIDTH 15 0
BBX 0 0 0 0
BITMAP
ENDCHAR
STARTCHAR 00EF
ENCODING 239
SWIDTH 245 0
DWIDTH 15 0
BBX 0 0 0 0
BITMAP
ENDCHAR
STARTCHAR 00F0
ENCODING 240
SWIDTH 556 0
DWIDTH 34 0
BBX 0 0 0 0
BITMAP
ENDCHAR
STARTCHAR 00F1
ENCODING 241
SWIDTH 540 0
DWIDTH 33 0
BBX 0 0 0 0
BITMAP
ENDCHAR
STARTCHAR 00F2
ENCODING 242
SWIDTH 490 0
DWIDTH 30 0
BBX 0 0 0 0
BITMAP
ENDCHAR
STARTCHAR 00F3
ENCODING 243
SWIDTH 490 0
DWIDTH 30 0
BBX 0 0 0 0
BITMAP
ENDCHAR
STARTCHAR 00F4
ENCODING 244
SWIDTH 490 0
DWIDTH 30 0
BBX 0 0 0 0
BITMAP
ENDCHAR
STARTCHAR 00F5
ENCODING 245
SWIDTH 490 0
DWIDTH 30 0
BBX 0 0 0 0
BITMAP
ENDCHAR
STARTCHAR 00F6
ENCODING 246
SWIDTH 490 0
DWIDTH 30 0
BBX 0 0 0 0
BITMAP
ENDCHAR
STARTCHAR 00F7
ENCODING 247
SWIDTH 490 0
DWIDTH 30 0
BBX 0 0 0 0
BITMAP
ENDCHAR
STARTCHAR 00F8
ENCODING 248
SWIDTH 490 0
DWIDTH 30 0
BBX 0 0 0 0
BITMAP
ENDCHAR
STARTCHAR 00F9
ENCODING 249
SWIDTH 523 0
DWIDTH 32 0
BBX 0 0 0 0
BITMAP
ENDCHAR
STARTCHAR 00FA
ENCODING 250
SWIDTH 523 0
DWIDTH 32 0
BBX 0 0 0 0
BITMAP
ENDCHAR
STARTCHAR 00FB
ENCODING 251
SWIDTH 523 0
DWIDTH 32 0
BBX 0 0 0 0
BITMAP
ENDCHAR
STARTCHAR 00FC
ENCODING 252
SWIDTH 523 0
DWIDTH 32 0
BBX 0 0 0 0
BITMAP
ENDCHAR
STARTCHAR 00FD
ENCODING 253
SWIDTH 425 0
DWIDTH 26 0
BBX 0 0 0 0
BITMAP
ENDCHAR
STARTCHAR 00FE
ENCODING 254
SWIDTH 490 0
DWIDTH 30 0
BBX 0 0 0 0
BITMAP
ENDCHAR
STARTCHAR 00FF
ENCODING 255
SWIDTH 425 0
DWIDTH 26 0
BBX 0 0 0 0
BITMAP
ENDCHAR
STARTCHAR 0131
ENCODING 305
SWIDTH 245 0
DWIDTH 15 0
BBX 0 0 0 0
BITMAP
ENDCHAR
STARTCHAR 02C6
ENCODING 710
SWIDTH 507 0
DWIDTH 31 0
BBX 0 0 0 0
BITMAP
ENDCHAR
STARTCHAR 02C7
ENCODING 711
SWIDTH 507 0
DWIDTH 31 0
BBX 0 0 0 0
BITMAP
ENDCHAR
STARTCHAR 02C9
ENCODING 713
SWIDTH 507 0
DWIDTH 31 0
BBX 0 0 0 0
BITMAP
ENDCHAR
STARTCHAR 02D8
ENCODING 728
SWIDTH 507 0
DWIDTH 31 0
BBX 0 0 0 0
BITMAP
ENDCHAR
STARTCHAR 02D9
ENCODING 729
SWIDTH 507 0
DWIDTH 31 0
BBX 0 0 0 0
BITMAP
ENDCHAR
STARTCHAR 02DA
ENCODING 730
SWIDTH 507 0
DWIDTH 31 0
BBX 0 0 0 0
BITMAP
ENDCHAR
STARTCHAR 02DB
ENCODING 731
SWIDTH 507 0
DWIDTH 31 0
BBX 0 0 0 0
BITMAP
ENDCHAR
STARTCHAR 02DC
ENCODING 732
SWIDTH 507 0
DWIDTH 31 0
BBX 0 0 0 0
BITMAP
ENDCHAR
STARTCHAR 02DD
ENCODING 733
SWIDTH 507 0
DWIDTH 31 0
BBX 0 0 0 0
BITMAP
ENDCHAR
STARTCHAR 037E
ENCODING 894
SWIDTH 981 0
DWIDTH 60 0
BBX 59 59 0 -10
BITMAP
0000000F00000000
0000000F00000000
0000000F00000000
0000000F00000000
0000000F00000000
0000000F00000000
0000000F00000000
0000000F00000000
0000000F00000000
0000000F00000000
0000000F00000000
0000000F00000000
0000000F00000000
0000000F00000000
0000000F00000000
0000000F00000000
0000000F00000000
0000000F00000000
0000000F00000000
0000000F00000000
0000000F00000000
0000000F00000000
0000000F00000000
0000000F00000000
0000000F00000000
0000000F00000000
0000000F00000000
FFFFFFFFFFFFFFE0
FFFFFFFFFFFFFFE0
FFFFFFFFFFFFFFE0
FFFFFFFFFFFFFFE0
FFFFFFFFFFFFFFE0
0000000F00000000
0000000F00000000
0000000F00000000
0000000F00000000
0000000F00000000
0000000F00000000
0000000F00000000
0000000F00000000
0000000F00000000
0000000F00000000
0000000F00000000
0000000F00000000
0000000F00000000
0000000F00000000
0000000F00000000
0000000F00000000
0000000F00000000
0000000F00000000
0000000F00000000
0000000F00000000
0000000F00000000
0000000F00000000
0000000F00000000
0000000F00000000
0000000F00000000
0000000F00000000
0000000F00000000
ENDCHAR
STARTCHAR 2013
ENCODING 8211
SWIDTH 540 0
DWIDTH 33 0
BBX 0 0 0 0
BITMAP
ENDCHAR
STARTCHAR 2014
ENCODING 8212
SWIDTH 998 0
DWIDTH 61 0
BBX 0 0 0 0
BITMAP
ENDCHAR
STARTCHAR 2018
ENCODING 8216
SWIDTH 278 0
DWIDTH 17 0
BBX 0 0 0 0
BITMAP
ENDCHAR
STARTCHAR 2019
ENCODING 8217
SWIDTH 278 0
DWIDTH 17 0
BBX 0 0 0 0
BITMAP
ENDCHAR
STARTCHAR 201A
ENCODING 8218
SWIDTH 278 0
DWIDTH 17 0
BBX 0 0 0 0
BITMAP
ENDCHAR
STARTCHAR 201C
ENCODING 8220
SWIDTH 441 0
DWIDTH 27 0
BBX 0 0 0 0
BITMAP
ENDCHAR
STARTCHAR 201D
ENCODING 8221
SWIDTH 441 0
DWIDTH 27 0
BBX 0 0 0 0
BITMAP
ENDCHAR
STARTCHAR 201E
ENCODING 8222
SWIDTH 441 0
DWIDTH 27 0
BBX 0 0 0 0
BITMAP
ENDCHAR
STARTCHAR 2020
ENCODING 8224
SWIDTH 490 0
DWIDTH 30 0
BBX 0 0 0 0
BITMAP
ENDCHAR
STARTCHAR 2021
ENCODING 8225
SWIDTH 490 0
DWIDTH 30 0
BBX 0 0 0 0
BITMAP
ENDCHAR
STARTCHAR 2022
ENCODING 8226
SWIDTH 507 0
DWIDTH 31 0
BBX 0 0 0 0
BITMAP
ENDCHAR
STARTCHAR 2026
ENCODING 8230
SWIDTH 998 0
DWIDTH 61 0
BBX 0 0 0 0
BITMAP
ENDCHAR
STARTCHAR 2039
ENCODING 8249
SWIDTH 310 0
DWIDTH 19 0
BBX 0 0 0 0
BITMAP
ENDCHAR
STARTCHAR 203A
ENCODING 8250
SWIDTH 310 0
DWIDTH 19 0
BBX 0 0 0 0
BITMAP
ENDCHAR
STARTCHAR 2044
ENCODING 8260
SWIDTH 163 0
DWIDTH 10 0
BBX 0 0 0 0
BITMAP
ENDCHAR
STARTCHAR 20A3
ENCODING 8355
SWIDTH 490 0
DWIDTH 30 0
BBX 0 0 0 0
BITMAP
ENDCHAR
STARTCHAR 20A4
ENCODING 8356
SWIDTH 490 0
DWIDTH 30 0
BBX 0 0 0 0
BITMAP
ENDCHAR
STARTCHAR 20A7
ENCODING 8359
SWIDTH 981 0
DWIDTH 60 0
BBX 0 0 0 0
BITMAP
ENDCHAR
STARTCHAR 20AC
ENCODING 8364
SWIDTH 490 0
DWIDTH 30 0
BBX 0 0 0 0
BITMAP
ENDCHAR
STARTCHAR 2116
ENCODING 8470
SWIDTH 1112 0
DWIDTH 68 0
BBX 0 0 0 0
BITMAP
ENDCHAR
STARTCHAR 2122
ENCODING 8482
SWIDTH 736 0
DWIDTH 45 0
BBX 0 0 0 0
BITMAP
ENDCHAR
STARTCHAR 2202
ENCODING 8706
SWIDTH 490 0
DWIDTH 30 0
BBX 0 0 0 0
BITMAP
ENDCHAR
STARTCHAR 2206
ENCODING 8710
SWIDTH 523 0
DWIDTH 32 0
BBX 0 0 0 0
BITMAP
ENDCHAR
STARTCHAR 220F
ENCODING 8719
SWIDTH 736 0
DWIDTH 45 0
BBX 0 0 0 0
BITMAP
ENDCHAR
STARTCHAR 2211
ENCODING 8721
SWIDTH 589 0
DWIDTH 36 0
BBX 0 0 0 0
BITMAP
ENDCHAR
STARTCHAR 2212
ENCODING 8722
SWIDTH 490 0
DWIDTH 30 0
BBX 0 0 0 0
BITMAP
ENDCHAR
STARTCHAR 2215
ENCODING 8725
SWIDTH 163 0
DWIDTH 10 0
BBX 0 0 0 0
BITMAP
ENDCHAR
STARTCHAR 2219
ENCODING 8729
SWIDTH 245 0
DWIDTH 15 0
BBX 0 0 0 0
BITMAP
ENDCHAR
STARTCHAR 221A
ENCODING 8730
SWIDTH 490 0
DWIDTH 30 0
BBX 0 0 0 0
BITMAP
ENDCHAR
STARTCHAR 221E
ENCODING 8734
SWIDTH 490 0
DWIDTH 30 0
BBX 0 0 0 0
BITMAP
ENDCHAR
STARTCHAR 222B
ENCODING 8747
SWIDTH 327 0
DWIDTH 20 0
BBX 0 0 0 0
BITMAP
ENDCHAR
STARTCHAR 2248
ENCODING 8776
SWIDTH 490 0
DWIDTH 30 0
BBX 0 0 0 0
BITMAP
ENDCHAR
STARTCHAR 2264
ENCODING 8804
SWIDTH 490 0
DWIDTH 30 0
BBX 0 0 0 0
BITMAP
ENDCHAR
STARTCHAR 2265
ENCODING 8805
SWIDTH 490 0
DWIDTH 30 0
BBX 0 0 0 0
BITMAP
ENDCHAR
STARTCHAR F001
ENCODING 61441
SWIDTH 523 0
DWIDTH 32 0
BBX 0 0 0 0
BITMAP
ENDCHAR
STARTCHAR F002
ENCODING 61442
SWIDTH 523 0
DWIDTH 32 0
BBX 0 0 0 0
BITMAP
ENDCHAR
STARTCHAR FB01
ENCODING 64257
SWIDTH 523 0
DWIDTH 32 0
BBX 0 0 0 0
BITMAP
ENDCHAR
STARTCHAR FB02
ENCODING 64258
SWIDTH 523 0
DWIDTH 32 0
BBX 0 0 0 0
BITMAP
ENDCHAR
ENDFONT
